<?xml version="1.0" encoding="UTF-8"?>
<svg version="1.1" xmlns="http://www.w3.org/2000/svg" width="1128" height="191">
<path d="M0 0 C372.24 0 744.48 0 1128 0 C1128 63.03 1128 126.06 1128 191 C755.76 191 383.52 191 0 191 C0 127.97 0 64.94 0 0 Z " fill="#FDFDFE" transform="translate(0,0)"/>
<path d="M0 0 C1.46189507 -0.00503792 1.46189507 -0.00503792 2.95332336 -0.01017761 C6.17153197 -0.01966782 9.38968844 -0.02162973 12.60791016 -0.02270508 C14.84843975 -0.0259189 17.08896914 -0.02928306 19.32949829 -0.03279114 C24.02517178 -0.0387775 28.72082687 -0.04063153 33.41650391 -0.04003906 C39.42765783 -0.03993745 45.43869363 -0.05359148 51.44981956 -0.07081127 C56.07726583 -0.08193998 60.7046836 -0.083958 65.33214188 -0.08342934 C67.54806551 -0.08460806 69.76398992 -0.08902382 71.97990036 -0.0967617 C75.08173608 -0.10657941 78.18331626 -0.10367645 81.28515625 -0.09765625 C82.19655869 -0.10327576 83.10796112 -0.10889526 84.04698181 -0.11468506 C91.45581217 -0.07822027 97.3474495 1.22436366 103.83447266 5.02026367 C104.72263672 5.51268555 105.61080078 6.00510742 106.52587891 6.51245117 C113.85560146 13.53980963 115.78644587 21.42337342 116.04833984 31.22143555 C116.11001002 35.18660273 116.09555454 39.14858246 116.06884766 43.11401367 C116.07289767 45.24288328 116.07872763 47.37175016 116.08624268 49.50061035 C116.0950496 53.94542054 116.08235741 58.38950342 116.05419922 62.83422852 C116.02001557 68.50332292 116.03971959 74.17071255 116.075634 79.83974457 C116.09741844 84.23073949 116.09036786 88.62133682 116.07486725 93.01234436 C116.07089312 95.10132555 116.07567573 97.19034402 116.08974457 99.27928162 C116.15101153 110.93023029 116.13351551 120.24860072 109.27197266 130.14526367 C108.61197266 130.14526367 107.95197266 130.14526367 107.27197266 130.14526367 C107.27197266 130.80526367 107.27197266 131.46526367 107.27197266 132.14526367 C106.61197266 132.14526367 105.95197266 132.14526367 105.27197266 132.14526367 C105.27197266 132.80526367 105.27197266 133.46526367 105.27197266 134.14526367 C98.77197266 138.14526367 98.77197266 138.14526367 94.27197266 138.14526367 C94.27197266 138.80526367 94.27197266 139.46526367 94.27197266 140.14526367 C80.62412834 140.28452202 66.97645414 140.39101652 53.32804298 140.4561367 C46.98992369 140.48739741 40.65229189 140.52977578 34.31445312 140.59790039 C28.19359954 140.66327802 22.07321372 140.69900926 15.95203781 140.71452713 C13.62129736 140.72558027 11.29058139 140.74716467 8.96004105 140.77964401 C5.68537098 140.82345008 2.41261304 140.82918743 -0.86230469 140.82641602 C-1.81753021 140.84798767 -2.77275574 140.86955933 -3.75692749 140.89178467 C-11.9440724 140.817222 -17.94446041 137.74932638 -23.85355186 132.12058067 C-30.48553688 125.10632138 -33.34080606 118.35607884 -33.22973633 108.75097656 C-33.23513931 107.84742935 -33.2405423 106.94388214 -33.24610901 106.01295471 C-33.25854229 103.04760242 -33.24213984 100.08323143 -33.22412109 97.11791992 C-33.22427622 95.04341074 -33.22576747 92.96890127 -33.22853088 90.89439392 C-33.22991251 86.55446501 -33.21739723 82.21486751 -33.19458008 77.875 C-33.16621424 72.32922422 -33.16893128 66.78399946 -33.18167019 61.23818302 C-33.18864652 56.95632778 -33.18081547 52.67459847 -33.16841316 48.39275932 C-33.1639164 46.34875408 -33.16354624 44.30473524 -33.16747856 42.26072884 C-33.17040952 39.39652222 -33.15379347 36.5330578 -33.13208008 33.66894531 C-33.13658173 32.83490173 -33.14108337 32.00085815 -33.14572144 31.14154053 C-33.01974965 21.07180272 -29.93407362 14.54904212 -23.00537109 7.31713867 C-15.83494729 0.47879281 -9.57654046 -0.00474078 0 0 Z " fill="#FAFAFC" transform="translate(334.72802734375,25.854736328125)"/>
<path d="M0 0 C1.46189507 -0.00503792 1.46189507 -0.00503792 2.95332336 -0.01017761 C6.17153197 -0.01966782 9.38968844 -0.02162973 12.60791016 -0.02270508 C14.84843975 -0.0259189 17.08896914 -0.02928306 19.32949829 -0.03279114 C24.02517178 -0.0387775 28.72082687 -0.04063153 33.41650391 -0.04003906 C39.42765783 -0.03993745 45.43869363 -0.05359148 51.44981956 -0.07081127 C56.07726583 -0.08193998 60.7046836 -0.083958 65.33214188 -0.08342934 C67.54806551 -0.08460806 69.76398992 -0.08902382 71.97990036 -0.0967617 C75.08173608 -0.10657941 78.18331626 -0.10367645 81.28515625 -0.09765625 C82.19655869 -0.10327576 83.10796112 -0.10889526 84.04698181 -0.11468506 C91.45581217 -0.07822027 97.3474495 1.22436366 103.83447266 5.02026367 C104.72263672 5.51268555 105.61080078 6.00510742 106.52587891 6.51245117 C113.85560146 13.53980963 115.78644587 21.42337342 116.04833984 31.22143555 C116.11001002 35.18660273 116.09555454 39.14858246 116.06884766 43.11401367 C116.07289767 45.24288328 116.07872763 47.37175016 116.08624268 49.50061035 C116.0950496 53.94542054 116.08235741 58.38950342 116.05419922 62.83422852 C116.02001557 68.50332292 116.03971959 74.17071255 116.075634 79.83974457 C116.09741844 84.23073949 116.09036786 88.62133682 116.07486725 93.01234436 C116.07089312 95.10132555 116.07567573 97.19034402 116.08974457 99.27928162 C116.15101153 110.93023029 116.13351551 120.24860072 109.27197266 130.14526367 C108.61197266 130.14526367 107.95197266 130.14526367 107.27197266 130.14526367 C107.27197266 130.80526367 107.27197266 131.46526367 107.27197266 132.14526367 C106.61197266 132.14526367 105.95197266 132.14526367 105.27197266 132.14526367 C105.27197266 132.80526367 105.27197266 133.46526367 105.27197266 134.14526367 C98.77197266 138.14526367 98.77197266 138.14526367 94.27197266 138.14526367 C94.27197266 138.80526367 94.27197266 139.46526367 94.27197266 140.14526367 C80.62412834 140.28452202 66.97645414 140.39101652 53.32804298 140.4561367 C46.98992369 140.48739741 40.65229189 140.52977578 34.31445312 140.59790039 C28.19359954 140.66327802 22.07321372 140.69900926 15.95203781 140.71452713 C13.62129736 140.72558027 11.29058139 140.74716467 8.96004105 140.77964401 C5.68537098 140.82345008 2.41261304 140.82918743 -0.86230469 140.82641602 C-1.81753021 140.84798767 -2.77275574 140.86955933 -3.75692749 140.89178467 C-11.9440724 140.817222 -17.94446041 137.74932638 -23.85355186 132.12058067 C-30.48553688 125.10632138 -33.34080606 118.35607884 -33.22973633 108.75097656 C-33.23513931 107.84742935 -33.2405423 106.94388214 -33.24610901 106.01295471 C-33.25854229 103.04760242 -33.24213984 100.08323143 -33.22412109 97.11791992 C-33.22427622 95.04341074 -33.22576747 92.96890127 -33.22853088 90.89439392 C-33.22991251 86.55446501 -33.21739723 82.21486751 -33.19458008 77.875 C-33.16621424 72.32922422 -33.16893128 66.78399946 -33.18167019 61.23818302 C-33.18864652 56.95632778 -33.18081547 52.67459847 -33.16841316 48.39275932 C-33.1639164 46.34875408 -33.16354624 44.30473524 -33.16747856 42.26072884 C-33.17040952 39.39652222 -33.15379347 36.5330578 -33.13208008 33.66894531 C-33.13658173 32.83490173 -33.14108337 32.00085815 -33.14572144 31.14154053 C-33.01974965 21.07180272 -29.93407362 14.54904212 -23.00537109 7.31713867 C-15.83494729 0.47879281 -9.57654046 -0.00474078 0 0 Z M-12.72802734 12.14526367 C-12.72802734 12.80526367 -12.72802734 13.46526367 -12.72802734 14.14526367 C-13.84177734 14.42370117 -13.84177734 14.42370117 -14.97802734 14.70776367 C-18.70030958 16.65350211 -20.21515421 19.34848873 -21.72802734 23.14526367 C-22.26557421 26.23567384 -22.2659879 29.25077665 -22.22973633 32.38183594 C-22.23513931 33.28030243 -22.2405423 34.17876892 -22.24610901 35.10446167 C-22.2585574 38.05720547 -22.2421324 41.00896689 -22.22412109 43.96166992 C-22.22427616 46.02237499 -22.22576637 48.08308035 -22.22853088 50.14378357 C-22.22991309 54.45519966 -22.21738537 58.76628237 -22.19458008 63.07763672 C-22.16617836 68.59795436 -22.16894011 74.11771906 -22.18167019 79.63807774 C-22.18863155 83.89064744 -22.18083311 88.14308979 -22.16841316 92.39564323 C-22.16390438 94.43096363 -22.16355684 96.46629773 -22.16747856 98.50161934 C-22.17039568 101.34739245 -22.15386026 104.1924086 -22.13208008 107.03808594 C-22.13658173 107.87513565 -22.14108337 108.71218536 -22.14572144 109.57460022 C-22.0726245 115.33584269 -21.03452247 119.59259969 -17.04443359 124.00854492 C-16.17625 124.7259082 -16.17625 124.7259082 -15.29052734 125.45776367 C-14.71431641 125.94889648 -14.13810547 126.4400293 -13.54443359 126.94604492 C-10.39710195 129.02396065 -7.24099205 129.27033917 -3.53569031 129.28570557 C-2.70730652 129.29141571 -1.87892273 129.29712585 -1.0254364 129.30300903 C-0.12509171 129.30412689 0.77525299 129.30524475 1.70288086 129.30639648 C3.13529617 129.31384384 3.13529617 129.31384384 4.59664917 129.32144165 C7.75535809 129.33604484 10.91401678 129.34286217 14.07275391 129.34838867 C16.26987204 129.35414157 18.46699017 129.35989928 20.66410828 129.36566162 C25.27159865 129.37616631 29.8790716 129.38201249 34.48657227 129.38549805 C40.38458604 129.39098212 46.28236888 129.4150107 52.18031025 129.44347 C56.71940276 129.46211197 61.25843981 129.46730282 65.79756737 129.46883392 C67.9716334 129.47185736 70.14569854 129.47987544 72.31972694 129.4930191 C75.36428936 129.51011215 78.40828966 129.50819125 81.45288086 129.50170898 C82.34715286 129.51092377 83.24142487 129.52013855 84.16279602 129.52963257 C89.62353132 129.49329163 93.3991245 128.64004899 98.27197266 126.14526367 C98.27197266 125.48526367 98.27197266 124.82526367 98.27197266 124.14526367 C99.26197266 123.81526367 100.25197266 123.48526367 101.27197266 123.14526367 C105.20011159 117.70055246 105.84750947 113.58675014 105.7578125 106.98461914 C105.76160919 106.09429993 105.76540588 105.20398071 105.76931763 104.28668213 C105.77669066 101.36157315 105.7553895 98.43747093 105.73291016 95.51245117 C105.73052407 93.47177243 105.72962076 91.43109145 105.73013306 89.39041138 C105.7270108 85.12186859 105.71048727 80.85366305 105.68359375 76.58520508 C105.64957181 71.11643367 105.64196678 65.64803165 105.64348412 60.17916679 C105.64294013 55.96868368 105.63196911 51.75828115 105.61748123 47.54782486 C105.61112251 45.53121678 105.6071765 43.51459959 105.60569382 41.49798203 C105.60135346 38.68086964 105.58383773 35.86414751 105.5625 33.04711914 C105.56340637 32.21582489 105.56431274 31.38453064 105.56524658 30.52804565 C105.51828919 26.28447202 105.2282616 23.01789247 103.27197266 19.14526367 C102.61197266 19.14526367 101.95197266 19.14526367 101.27197266 19.14526367 C100.96259766 18.27901367 100.96259766 18.27901367 100.64697266 17.39526367 C98.50017648 13.88232448 95.25739994 11.76435634 91.33198357 10.54033947 C89.23211144 10.13761895 87.32357437 10.0166925 85.1867981 10.0115509 C84.38221161 10.00728592 83.57762512 10.00302094 82.74865723 9.99862671 C81.8747937 9.9990799 81.00093018 9.99953308 80.10058594 10 C79.17329681 9.99664139 78.24600769 9.99328278 77.2906189 9.98982239 C74.22449403 9.9803217 71.15842383 9.97836972 68.09228516 9.97729492 C65.96003192 9.97408174 63.8277789 9.97071762 61.69552612 9.96720886 C57.22507211 9.96121981 52.75463743 9.95936874 48.28417969 9.95996094 C42.55875178 9.96006255 36.83344791 9.94641026 31.10804939 9.92918873 C26.70367871 9.91806464 22.29933798 9.91604186 17.89495468 9.91657066 C15.78426562 9.91539117 13.67357577 9.91097111 11.56290054 9.9032383 C8.60922838 9.89343026 5.65582502 9.89631975 2.70214844 9.90234375 C1.83233337 9.89672424 0.96251831 9.89110474 0.06634521 9.88531494 C-4.59919624 9.90946815 -8.33860161 10.35203453 -12.72802734 12.14526367 Z " fill="#0F0E6B" transform="translate(334.72802734375,25.854736328125)"/>
<path d="M0 0 C33.09913793 0 33.09913793 0 38.62890625 3.8125 C42.14068034 7.78541615 44.51169403 10.75576741 44.75 16.1875 C44.35941225 20.83115436 43.04162197 23.51108068 40 27 C39.01 27.495 39.01 27.495 38 28 C37.505 29.485 37.505 29.485 37 31 C37.721875 31.20625 38.44375 31.4125 39.1875 31.625 C42.80740063 33.3947292 45.19930459 35.41336897 47 39 C48.17347637 45.049473 47.07999518 49.96430003 44.16796875 55.30859375 C41.95223521 58.51733162 39.64267553 60.58340396 36 62 C24.11602386 63.69771088 12.00462874 63 0 63 C0 42.21 0 21.42 0 0 Z " fill="#0D0D69" transform="translate(671,32)"/>
<path d="M0 0 C1.46189507 -0.00503792 1.46189507 -0.00503792 2.95332336 -0.01017761 C6.17153197 -0.01966782 9.38968844 -0.02162973 12.60791016 -0.02270508 C14.84843975 -0.0259189 17.08896914 -0.02928306 19.32949829 -0.03279114 C24.02517178 -0.0387775 28.72082687 -0.04063153 33.41650391 -0.04003906 C39.42765783 -0.03993745 45.43869363 -0.05359148 51.44981956 -0.07081127 C56.07726583 -0.08193998 60.7046836 -0.083958 65.33214188 -0.08342934 C67.54806551 -0.08460806 69.76398992 -0.08902382 71.97990036 -0.0967617 C75.08173608 -0.10657941 78.18331626 -0.10367645 81.28515625 -0.09765625 C82.19655869 -0.10327576 83.10796112 -0.10889526 84.04698181 -0.11468506 C91.45581217 -0.07822027 97.3474495 1.22436366 103.83447266 5.02026367 C104.72263672 5.51268555 105.61080078 6.00510742 106.52587891 6.51245117 C113.83453786 13.51961495 115.78764333 21.35894795 116.00073242 31.13305664 C116.04195459 35.05238724 116.00773671 38.96828312 115.96337891 42.88745117 C115.95979601 44.98584742 115.9584456 47.08424854 115.95921326 49.18264771 C115.95454441 53.55851808 115.92986746 57.93364316 115.8894043 62.30932617 C115.83824739 67.91136438 115.82696815 73.51259121 115.82923985 79.11483574 C115.82842372 83.43862618 115.81196686 87.76224014 115.79023552 92.08597183 C115.78071042 94.15198561 115.77478148 96.21801927 115.7725544 98.2840538 C115.76603666 101.16766142 115.73975357 104.05041461 115.70776367 106.93383789 C115.70980301 108.20568184 115.70980301 108.20568184 115.71188354 109.5032196 C115.63158185 114.46286861 114.91511296 117.79444316 112.27197266 122.14526367 C111.28197266 122.14526367 110.29197266 122.14526367 109.27197266 122.14526367 C109.27197266 120.82526367 109.27197266 119.50526367 109.27197266 118.14526367 C108.61197266 118.14526367 107.95197266 118.14526367 107.27197266 118.14526367 C106.94197266 119.13526367 106.61197266 120.12526367 106.27197266 121.14526367 C105.61197266 121.14526367 104.95197266 121.14526367 104.27197266 121.14526367 C104.27197266 121.80526367 104.27197266 122.46526367 104.27197266 123.14526367 C103.28197266 123.80526367 102.29197266 124.46526367 101.27197266 125.14526367 C100.28197266 124.81526367 99.29197266 124.48526367 98.27197266 124.14526367 C99.20009766 123.27901367 99.20009766 123.27901367 100.14697266 122.39526367 C104.5698307 117.71223751 104.55689029 113.58827328 104.51489258 107.32519531 C104.5177401 105.99037361 104.5177401 105.99037361 104.52064514 104.62858582 C104.52434923 101.68744084 104.51365267 98.74654295 104.50244141 95.80541992 C104.50124913 93.76045257 104.50079654 91.71548466 104.50105286 89.67051697 C104.49948854 85.38415092 104.49120362 81.09786846 104.4777832 76.81152344 C104.46080427 71.3191938 104.45696864 65.82695612 104.45772839 60.33460331 C104.45745632 56.11127343 104.45196901 51.88796362 104.44472694 47.66464043 C104.44154626 45.63965443 104.43957427 43.61466617 104.43883324 41.58967781 C104.43666272 38.7579881 104.42790268 35.92639539 104.41723633 33.09472656 C104.41768951 32.25871918 104.4181427 31.42271179 104.41860962 30.56137085 C104.39694165 26.62304529 104.24469588 22.99053323 103.27197266 19.14526367 C102.61197266 19.14526367 101.95197266 19.14526367 101.27197266 19.14526367 C100.83884766 18.54713867 100.40572266 17.94901367 99.95947266 17.33276367 C97.13869487 13.67619988 93.72022043 12.04950273 89.27197266 11.14526367 C87.91234809 11.05861922 86.54918045 11.01901755 85.1867981 11.01828003 C84.38221161 11.01546021 83.57762512 11.01264038 82.74865723 11.00973511 C81.8747937 11.01175934 81.00093018 11.01378357 80.10058594 11.01586914 C79.17329681 11.01411682 78.24600769 11.0123645 77.2906189 11.01055908 C74.22448862 11.00615709 71.15841602 11.00907326 68.09228516 11.01245117 C65.96003203 11.01177754 63.82777898 11.01080702 61.69552612 11.009552 C57.22506988 11.00807717 52.75463361 11.01022229 48.28417969 11.01489258 C42.55878669 11.02058281 36.83344065 11.01731396 31.10804939 11.01132011 C26.70368091 11.00770283 22.29932351 11.00885859 17.89495468 11.01144791 C15.78426991 11.0121143 13.67358413 11.0112988 11.56290054 11.00896835 C8.60928949 11.00642348 5.65575389 11.01030866 2.70214844 11.01586914 C1.83233337 11.01384491 0.96251831 11.01182068 0.06634521 11.00973511 C-4.31259442 11.0249751 -8.41629319 11.26540593 -12.72802734 12.14526367 C-12.72802734 12.80526367 -12.72802734 13.46526367 -12.72802734 14.14526367 C-13.51177734 14.35151367 -14.29552734 14.55776367 -15.10302734 14.77026367 C-18.02764656 15.93060343 -18.02764656 15.93060343 -18.85302734 19.14526367 C-19.28615234 20.63026367 -19.28615234 20.63026367 -19.72802734 22.14526367 C-20.71802734 22.80526367 -21.70802734 23.46526367 -22.72802734 24.14526367 C-22.39802734 21.50526367 -22.06802734 18.86526367 -21.72802734 16.14526367 C-24.84060303 16.14526367 -26.83568419 16.31887991 -29.72802734 17.14526367 C-27.96115491 10.66673143 -22.75537103 6.68604487 -17.60302734 2.77026367 C-12.00554125 -0.39353281 -6.26581231 -0.00310184 0 0 Z " fill="#050464" transform="translate(334.72802734375,25.854736328125)"/>
<path d="M0 0 C2.97 0 5.94 0 9 0 C12.95708354 7.45952344 16.04632475 15.09745164 19 23 C21.11898885 28.53940392 23.41665985 33.94285324 25.9375 39.3125 C34 56.6273855 34 56.6273855 34 63 C31.36 63 28.72 63 26 63 C25.01161567 60.9627797 24.03467748 58.92000393 23.0625 56.875 C22.51722656 55.73804688 21.97195313 54.60109375 21.41015625 53.4296875 C20 50 20 50 19 44 C5.635 44.495 5.635 44.495 -8 45 C-9.56049158 49.79975327 -9.56049158 49.79975327 -11.11083984 54.6027832 C-12.14441795 57.74262362 -13.15542748 60.23314123 -15 63 C-16.9453125 63.29296875 -16.9453125 63.29296875 -19.125 63.1875 C-20.40375 63.125625 -21.6825 63.06375 -23 63 C-22.28634532 58.29173278 -20.5792868 54.13845524 -18.8125 49.75 C-16.3510459 43.54069733 -14.00419213 37.3096318 -11.8125 31 C-9.24962696 23.63844911 -6.48547093 16.39944064 -3.375 9.25 C-2.08562077 6.20237637 -0.99972195 3.15296923 0 0 Z " fill="#141368" transform="translate(746,32)"/>
<path d="M0 0 C2.76702 2.55314406 4.10824652 5.03419774 5.6171875 8.4921875 C5.3671875 10.9296875 5.3671875 10.9296875 4.6171875 12.4921875 C1.6471875 12.9871875 1.6471875 12.9871875 -1.3828125 13.4921875 C-2.22186815 12.37144888 -3.05389081 11.24544203 -3.8828125 10.1171875 C-4.346875 9.49070312 -4.8109375 8.86421875 -5.2890625 8.21875 C-6.3828125 6.4921875 -6.3828125 6.4921875 -6.3828125 4.4921875 C-13.92628337 1.61848431 -23.77693424 0.76893272 -31.4453125 3.6171875 C-37.47888052 7.46840113 -39.7796085 11.66083593 -41.3828125 18.4921875 C-42.04278126 26.5746621 -42.27645583 34.24195509 -38.3828125 41.4921875 C-33.78295563 46.7820229 -30.35059403 48.82858926 -23.3828125 49.4921875 C-17.66751813 49.79061268 -12.71231434 49.84708366 -7.3828125 47.4921875 C-6.4546875 47.1828125 -5.5265625 46.8734375 -4.5703125 46.5546875 C-0.81560252 43.01453237 -1.55891021 38.48162248 -1.3828125 33.4921875 C-7.6528125 33.4921875 -13.9228125 33.4921875 -20.3828125 33.4921875 C-20.3828125 30.8521875 -20.3828125 28.2121875 -20.3828125 25.4921875 C-16.07032641 25.46332213 -11.75786488 25.44543495 -7.4453125 25.4296875 C-6.21361328 25.42130859 -4.98191406 25.41292969 -3.71289062 25.40429688 C-1.9581543 25.39946289 -1.9581543 25.39946289 -0.16796875 25.39453125 C1.45806274 25.38667603 1.45806274 25.38667603 3.11694336 25.37866211 C5.6171875 25.4921875 5.6171875 25.4921875 6.6171875 26.4921875 C6.70432581 28.19991108 6.72418757 29.91117399 6.71484375 31.62109375 C6.71162109 32.65556641 6.70839844 33.69003906 6.70507812 34.75585938 C6.69250977 36.3887793 6.69250977 36.3887793 6.6796875 38.0546875 C6.67517578 39.14716797 6.67066406 40.23964844 6.66601562 41.36523438 C6.65418576 44.07427245 6.63770293 46.78320349 6.6171875 49.4921875 C4.9671875 50.1521875 3.3171875 50.8121875 1.6171875 51.4921875 C1.6171875 52.1521875 1.6171875 52.8121875 1.6171875 53.4921875 C-5.0078125 56.4921875 -5.0078125 56.4921875 -8.3828125 56.4921875 C-8.3828125 57.1521875 -8.3828125 57.8121875 -8.3828125 58.4921875 C-31.53344323 59.34785763 -31.53344323 59.34785763 -41.2578125 51.6171875 C-47.50078337 45.7259333 -50.68064973 38.73603493 -51.63671875 30.234375 C-51.88648443 20.9430917 -49.94727763 12.55607589 -45.3828125 4.4921875 C-44.7228125 4.4921875 -44.0628125 4.4921875 -43.3828125 4.4921875 C-43.1559375 3.9146875 -42.9290625 3.3371875 -42.6953125 2.7421875 C-40.41476496 -1.16732257 -37.46934704 -3.13624452 -33.21875 -4.58984375 C-21.33064703 -7.09895803 -10.12826793 -7.60745458 0 0 Z " fill="#18176A" transform="translate(535.3828125,37.5078125)"/>
<path d="M0 0 C6.11081144 5.29603658 10.06213041 11.53559111 11.8125 19.4375 C11.9960986 22.11047955 12.10005949 24.64706037 12.0625 27.3125 C12.05126099 28.36522095 12.05126099 28.36522095 12.03979492 29.43920898 C11.8532409 38.45320749 10.71764493 44.49895471 4.8125 51.4375 C4.1525 51.4375 3.4925 51.4375 2.8125 51.4375 C2.4825 52.4275 2.1525 53.4175 1.8125 54.4375 C-0.84833969 56.43146257 -3.79992325 58.4375 -7.1875 58.4375 C-7.1875 59.0975 -7.1875 59.7575 -7.1875 60.4375 C-13.7875 60.4375 -20.3875 60.4375 -27.1875 60.4375 C-27.1875 59.7775 -27.1875 59.1175 -27.1875 58.4375 C-28.05375 58.19 -28.92 57.9425 -29.8125 57.6875 C-36.13192529 55.34697211 -40.28866288 51.91694676 -44.1875 46.4375 C-47.05402214 40.14361443 -47.67951683 34.874077 -47.625 28 C-47.64498047 27.10990234 -47.66496094 26.21980469 -47.68554688 25.30273438 C-47.67910356 16.48184092 -44.82291711 9.41677105 -38.80859375 2.9375 C-28.02231012 -7.04306123 -12.44181503 -6.09892894 0 0 Z M-35.1875 10.4375 C-39.82945889 18.65019649 -40.04165971 27.1556311 -39.1875 36.4375 C-38.02981291 40.15136018 -36.62523413 43.39033234 -34.1875 46.4375 C-32.85912289 47.11398834 -31.52631974 47.78192091 -30.1875 48.4375 C-29.8575 49.4275 -29.5275 50.4175 -29.1875 51.4375 C-23.81644632 54.30014715 -18.10819663 53.95234319 -12.1875 53.4375 C-5.15067875 51.00659811 -0.91726275 45.69817319 2.8125 39.4375 C5.3875875 31.78000297 4.7687932 21.77713307 1.78125 14.3359375 C-0.48824991 9.88844978 -3.08573407 6.65271046 -7.75 4.5625 C-17.63256317 1.44267382 -28.06654827 2.51418752 -35.1875 10.4375 Z " fill="#0D0C66" transform="translate(648.1875,35.5625)"/>
<path d="M0 0 C2.97 0 5.94 0 9 0 C9 18.15 9 36.3 9 55 C19.23 55 29.46 55 40 55 C40 56.98 40 58.96 40 61 C39 62 39 62 35.30639648 62.11352539 C33.66128709 62.11327427 32.01617243 62.10771184 30.37109375 62.09765625 C29.22259949 62.09614563 29.22259949 62.09614563 28.05090332 62.09460449 C25.17975373 62.08935663 22.30862542 62.07539547 19.4375 62.0625 C13.023125 62.041875 6.60875 62.02125 0 62 C0 41.54 0 21.08 0 0 Z " fill="#35357C" transform="translate(787,33)"/>
<path d="M0 0 C24 0 24 0 27 2 C27 3.32 27 4.64 27 6 C17.595 6.495 17.595 6.495 8 7 C7.67 13.27 7.34 19.54 7 26 C6.34 24.68 5.68 23.36 5 22 C4.34 22.33 3.68 22.66 3 23 C1.21267275 31.1947268 1.15357626 40.83763473 3 49 C3.66 49 4.32 49 5 49 C5.33 44.05 5.66 39.1 6 34 C6.33 34 6.66 34 7 34 C7 40.93 7 47.86 7 55 C15.58 54.67 24.16 54.34 33 54 C33 53.34 33 52.68 33 52 C34.98 51.505 34.98 51.505 37 51 C37 50.34 37 49.68 37 49 C37.66 49 38.32 49 39 49 C38.938125 47.741875 38.87625 46.48375 38.8125 45.1875 C38.80558221 41.26511516 38.80558221 41.26511516 40.375 39.125 C40.91125 38.75375 41.4475 38.3825 42 38 C42.66 37.34 43.32 36.68 44 36 C44 36.99 44 37.98 44 39 C44.66 39 45.32 39 46 39 C47.03263911 50.47376785 47.03263911 50.47376785 43.25 55.625 C38.99218022 60.72148125 35.74870112 61.03589984 29 62 C19.43 62 9.86 62 0 62 C0 41.54 0 21.08 0 0 Z " fill="#060563" transform="translate(671,33)"/>
<path d="M0 0 C2.64 0 5.28 0 8 0 C8 18.15 8 36.3 8 55 C18.23 55 28.46 55 39 55 C39 57.31 39 59.62 39 62 C26.13 62 13.26 62 0 62 C0 41.54 0 21.08 0 0 Z " fill="#010065" transform="translate(554,33)"/>
<path d="M0 0 C4.75 0.75 4.75 0.75 7 3 C7 9.90616709 3.47603959 14.97528907 0 20.75 C-1.10632446 22.61851574 -2.21058792 24.48825377 -3.3125 26.359375 C-3.80363281 27.17889648 -4.29476563 27.99841797 -4.80078125 28.84277344 C-6.12599743 31.07040408 -6.12599743 31.07040408 -7 34 C-7.66 34 -8.32 34 -9 34 C-9.23976563 34.825 -9.47953125 35.65 -9.7265625 36.5 C-11.22256266 40.61170597 -13.19894417 44.21679183 -15.375 48 C-15.76171875 48.68578125 -16.1484375 49.3715625 -16.546875 50.078125 C-17.67698768 52.06530299 -18.83032769 54.03588099 -20 56 C-20.35336426 56.60005859 -20.70672852 57.20011719 -21.07080078 57.81835938 C-22.09375 59.46875 -22.09375 59.46875 -24 62 C-27.125 62.5 -27.125 62.5 -30 62 C-30.66 61.34 -31.32 60.68 -32 60 C-31.82860181 53.85303749 -29.43670519 49.53685596 -26.375 44.3125 C-25.92350586 43.52230469 -25.47201172 42.73210937 -25.00683594 41.91796875 C-23.68206697 39.60550778 -22.34273917 37.30205975 -21 35 C-20.33005409 33.83762841 -19.66070534 32.67491226 -18.9921875 31.51171875 C-16.81482079 27.74770589 -14.61321415 24.00225804 -12.34375 20.29296875 C-9.48852976 15.6252435 -6.99525659 11.09898906 -5 6 C-4.34 6 -3.68 6 -3 6 C-2.690625 5.38125 -2.38125 4.7625 -2.0625 4.125 C-1.375 2.75 -0.6875 1.375 0 0 Z " fill="#111069" transform="translate(390,65)"/>
<path d="M0 0 C2.25 1.875 2.25 1.875 4 4 C4 4.66 4 5.32 4 6 C4.99 6.33 5.98 6.66 7 7 C8.71875 8.77734375 8.71875 8.77734375 10.5 10.9375 C12.62876021 13.50975192 14.18391145 15.12260763 17 17 C17 17.66 17 18.32 17 19 C17.66 19 18.32 19 19 19 C21.03962295 21.11806999 21.93276102 22.46219747 22.30029297 25.40185547 C21.91940603 28.69730163 20.95154714 29.61944343 18.5703125 31.8828125 C17.85746094 32.57503906 17.14460938 33.26726562 16.41015625 33.98046875 C15.27900391 35.04201172 15.27900391 35.04201172 14.125 36.125 C12.64648135 37.54223291 11.16983679 38.96142422 9.6953125 40.3828125 C8.7055542 41.31697998 8.7055542 41.31697998 7.69580078 42.27001953 C5.80330361 44.09319422 5.80330361 44.09319422 4 47 C3.34 47 2.68 47 2 47 C2 47.66 2 48.32 2 49 C-1.375 49.625 -1.375 49.625 -5 50 C-7 48 -7 48 -7.0703125 44.82421875 C-5.61899891 39.63868588 -2.81401513 37.31937075 1.125 33.8125 C2.45097693 32.62268385 3.76671368 31.42132422 5.0703125 30.20703125 C5.65570801 29.6860083 6.24110352 29.16498535 6.84423828 28.62817383 C8.24359666 27.04673554 8.24359666 27.04673554 7.73388672 24.93237305 C6.09722184 20.62292445 5.22611724 18.98876105 1 17 C-1.25 15 -1.25 15 -3 13 C-3 12.34 -3 11.68 -3 11 C-3.66 11 -4.32 11 -5 11 C-7.15502531 7.76746204 -7.46856135 6.74849077 -7 3 C-4.78150499 -0.21681777 -4.13734472 0 0 0 Z " fill="#0F0E68" transform="translate(409,71)"/>
<path d="M0 0 C2.25 1 2.25 1 4.25 3 C4.14407436 6.80802676 3.55708667 8.62182846 1.140625 11.59765625 C0.26921875 12.41105469 -0.6021875 13.22445312 -1.5 14.0625 C-2.36109375 14.87847656 -3.2221875 15.69445312 -4.109375 16.53515625 C-5.93008194 18.23466229 -7.77562429 19.90781609 -9.640625 21.55859375 C-11.95129245 23.71950717 -11.95129245 23.71950717 -11.828125 26.03515625 C-10.40214388 28.63395518 -8.64326259 30.39004551 -6.5 32.4375 C-5.69046875 33.22640625 -4.8809375 34.0153125 -4.046875 34.828125 C-2.73990841 36.06396415 -1.42321223 37.29013867 -0.078125 38.484375 C3.15797965 41.41590509 3.94751767 43.66441987 4.25 48 C0.97942857 50.18038095 0.04480531 50.63246755 -3.75 50 C-6.5625 47.625 -6.5625 47.625 -8.75 45 C-8.75 44.34 -8.75 43.68 -8.75 43 C-9.30429687 42.77183594 -9.85859375 42.54367188 -10.4296875 42.30859375 C-13.40951494 40.62805134 -15.4779712 38.49888301 -17.875 36.0625 C-18.74382812 35.18722656 -19.61265625 34.31195313 -20.5078125 33.41015625 C-24.76924563 28.82948684 -24.76924563 28.82948684 -24.671875 24.6328125 C-23.58817344 20.36229366 -22.21247705 18.83085906 -19 15.875 C-18.13890625 15.06804687 -17.2778125 14.26109375 -16.390625 13.4296875 C-15.51921875 12.62789062 -14.6478125 11.82609375 -13.75 11 C-11.47827518 8.76860166 -9.23557354 6.54860472 -7.125 4.1640625 C-3.40482234 0 -3.40482234 0 0 0 Z " fill="#0A0966" transform="translate(346.75,71)"/>
<path d="M0 0 C1.65 0 3.3 0 5 0 C5 0.99 5 1.98 5 3 C13.25 3.33 21.5 3.66 30 4 C30 3.34 30 2.68 30 2 C31.32 2 32.64 2 34 2 C34 1.34 34 0.68 34 0 C34.66 0 35.32 0 36 0 C47 20.97938144 47 20.97938144 47 29 C44.36 29 41.72 29 39 29 C38.01161567 26.9627797 37.03467748 24.92000393 36.0625 22.875 C35.24458984 21.16957031 35.24458984 21.16957031 34.41015625 19.4296875 C33 16 33 16 32 10 C18.635 10.495 18.635 10.495 5 11 C3.43950842 15.79975327 3.43950842 15.79975327 1.88916016 20.6027832 C0.85558205 23.74262362 -0.15542748 26.23314123 -2 29 C-3.9453125 29.29296875 -3.9453125 29.29296875 -6.125 29.1875 C-7.40375 29.125625 -8.6825 29.06375 -10 29 C-9.27529933 24.06607898 -7.40572862 19.66118648 -5.5625 15.0625 C-3.57874675 10.0765305 -1.63387407 5.11509319 0 0 Z " fill="#0B0A65" transform="translate(733,66)"/>
<path d="M0 0 C3.3 -0.061875 6.6 -0.12375 10 -0.1875 C11.53527344 -0.22846802 11.53527344 -0.22846802 13.1015625 -0.27026367 C19.10844013 -0.32431162 23.55731373 0.39834557 29 3 C30.29004296 5.58008592 30.20410224 7.55741574 30.25 10.4375 C30.27578125 11.40558594 30.3015625 12.37367187 30.328125 13.37109375 C30 16 30 16 28.609375 17.84765625 C27 19 27 19 25 19 C25 19.66 25 20.32 25 21 C21.99984088 22.00005304 20.02576244 22.11575585 16.89453125 22.09765625 C15.56578979 22.09390991 15.56578979 22.09390991 14.21020508 22.09008789 C13.0889624 22.08098389 11.96771973 22.07187988 10.8125 22.0625 C7.244375 22.041875 3.67625 22.02125 0 22 C0 14.74 0 7.48 0 0 Z " fill="#F4F5FA" transform="translate(679,66)"/>
<path d="M0 0 C22.11 0 44.22 0 67 0 C67 2.64 67 5.28 67 8 C44.89 8 22.78 8 0 8 C0 5.36 0 2.72 0 0 Z " fill="#010063" transform="translate(754,133)"/>
<path d="M0 0 C1.32 0 2.64 0 4 0 C4 11.22 4 22.44 4 34 C2.02 34 0.04 34 -2 34 C-2.495 34.495 -2.495 34.495 -3 35 C-10.04663212 35.70466321 -10.04663212 35.70466321 -13.875 32.875 C-17.35479355 28.16704402 -18.60803469 23.83713304 -18 18 C-16.64481223 14.16030132 -15.59269477 12.41758041 -12.25 10.0625 C-7.85378453 8.62527571 -4.15899205 8.92050397 0 11 C0 7.37 0 3.74 0 0 Z " fill="#171665" transform="translate(671,118)"/>
<path d="M0 0 C3.58015641 3.4906525 5.14924253 6.31288412 5.25 11.25 C5.19494905 15.53021153 4.41570011 18.37644983 2 22 C-1.89738796 25.57905826 -5.22393744 25.69898271 -10.359375 25.52734375 C-13.26886973 24.9463056 -14.30576615 24.44233625 -16.1875 22.1875 C-18.85584176 17.39617101 -18.86423951 12.31347255 -18 7 C-16.31959825 3.4524852 -15.06668009 1.70096121 -11.8125 -0.4375 C-7.72166749 -1.2556665 -4.01733136 -1.18642683 0 0 Z " fill="#211F6A" transform="translate(645,128)"/>
<path d="M0 0 C4.4859375 -0.061875 4.4859375 -0.061875 9.0625 -0.125 C9.99070557 -0.14320801 10.91891113 -0.16141602 11.87524414 -0.18017578 C16.98045805 -0.21399598 21.19608105 0.22381418 26 2 C28.10298712 4.46872401 28.02139208 6.23959128 28.3125 9.5 C27.97962709 13.2281766 27.75005326 14.52495206 25 17 C19.69424047 19.32956004 14.79633761 19.23517039 9.125 19.125 C6.11375 19.08375 3.1025 19.0425 0 19 C0 12.73 0 6.46 0 0 Z " fill="#F5F5FB" transform="translate(679,40)"/>
<path d="M0 0 C1.65 0 3.3 0 5 0 C5.33 4.95 5.66 9.9 6 15 C7.01320313 13.9171875 8.02640625 12.834375 9.0703125 11.71875 C10.4210621 10.31171917 11.77266979 8.90551174 13.125 7.5 C14.12273438 6.42685547 14.12273438 6.42685547 15.140625 5.33203125 C20.21839684 0.10491318 20.21839684 0.10491318 24.4921875 -0.46875 C25.31976562 -0.3140625 26.14734375 -0.159375 27 0 C24.02555125 3.56511942 21.03302826 7.02598003 17.6875 10.25 C14.83428704 12.76896561 14.83428704 12.76896561 14 16 C14.66 16 15.32 16 16 16 C17.40234375 17.828125 17.40234375 17.828125 18.9375 20.25 C20.4588451 22.63123581 21.95450039 24.94157556 23.69140625 27.171875 C25 29 25 29 25 31 C25.66 31 26.32 31 27 31 C27 31.99 27 32.98 27 34 C24.75 34.3125 24.75 34.3125 22 34 C20.0625 32 20.0625 32 18 29 C17.47792969 28.33742187 16.95585938 27.67484375 16.41796875 26.9921875 C12 21.38436768 12 21.38436768 12 18 C8.27385847 19.11854586 8.27385847 19.11854586 6 22 C5.77141886 24.0374763 5.58975722 26.08040303 5.4375 28.125 C5.35371094 29.22070312 5.26992188 30.31640625 5.18359375 31.4453125 C5.12300781 32.28835937 5.06242188 33.13140625 5 34 C3.35 34 1.7 34 0 34 C0 22.78 0 11.56 0 0 Z " fill="#201F6F" transform="translate(597,118)"/>
<path d="M0 0 C2.61580794 1.80025581 3.34207353 3.11199906 5 6 C5 8.31 5 10.62 5 13 C-0.94 13 -6.88 13 -13 13 C-11.67082039 18.47825081 -11.67082039 18.47825081 -10 20 C-8.65252916 20.23075082 -7.29622435 20.41153063 -5.9375 20.5625 C-4.638125 20.706875 -3.33875 20.85125 -2 21 C-2 20.34 -2 19.68 -2 19 C-1.34 19 -0.68 19 0 19 C0 18.34 0 17.68 0 17 C1.32 17 2.64 17 4 17 C3.63515574 19.55390984 2.94055033 21.0891745 1.5 23.25 C-2.23610294 25.86527206 -5.57915893 25.75851519 -10 25 C-13.39392454 23.33389159 -15.32373054 22.04514371 -17.375 18.875 C-18.58595009 13.30462958 -19.16740077 8.07537914 -16.3125 3 C-11.2897178 -1.34402785 -6.30527698 -1.93833108 0 0 Z " fill="#28266F" transform="translate(698,128)"/>
<path d="M0 0 C2.31 0 4.62 0 7 0 C7.05058332 7.2265322 7.08568412 14.45301899 7.10986328 21.6796875 C7.11993983 24.13966579 7.13360131 26.59963206 7.15087891 29.05957031 C7.17505461 32.58922285 7.1864664 36.11871747 7.1953125 39.6484375 C7.20563507 40.75367767 7.21595764 41.85891785 7.22659302 42.99765015 C7.22674408 44.01855743 7.22689514 45.03946472 7.22705078 46.09130859 C7.231492 46.99287689 7.23593323 47.89444519 7.24050903 48.82333374 C7 51 7 51 5 53 C5 52.34 5 51.68 5 51 C4.01 51 3.02 51 2 51 C1.505 53.475 1.505 53.475 1 56 C0.67 56 0.34 56 0 56 C0 37.52 0 19.04 0 0 Z " fill="#010161" transform="translate(788,33)"/>
<path d="M0 0 C1.32 0 2.64 0 4 0 C4.04898437 1.07121094 4.09796875 2.14242187 4.1484375 3.24609375 C4.22345294 4.64325639 4.2990013 6.0403905 4.375 7.4375 C4.4059375 8.14455078 4.436875 8.85160156 4.46875 9.58007812 C4.57280629 11.39239188 4.77919892 13.19817988 5 15 C5.66 15.33 6.32 15.66 7 16 C7.21011719 15.46890625 7.42023438 14.9378125 7.63671875 14.390625 C9.55665495 11.02386009 12.09851656 8.49351894 14.8125 5.75 C15.33392578 5.19570312 15.85535156 4.64140625 16.39257812 4.0703125 C18.8560534 1.57300673 20.33969813 0.08220267 23.88671875 -0.359375 C24.93279297 -0.18148437 24.93279297 -0.18148437 26 0 C26 3 26 3 24.35546875 4.71875 C23.64003906 5.3065625 22.92460937 5.894375 22.1875 6.5 C20.7880789 7.6623607 19.39207284 8.82884885 18 10 C17.39800781 10.4846875 16.79601562 10.969375 16.17578125 11.46875 C15.78777344 11.9740625 15.39976562 12.479375 15 13 C15.45207262 16.13180869 16.59930061 18.11530276 18.50390625 20.6015625 C18.99697266 21.25640625 19.49003906 21.91125 19.99804688 22.5859375 C20.77245117 23.59527344 20.77245117 23.59527344 21.5625 24.625 C22.58890481 25.9681022 23.61125897 27.31431276 24.62890625 28.6640625 C25.08338135 29.25654785 25.53785645 29.8490332 26.00610352 30.45947266 C27 32 27 32 27 34 C24.86328125 34.46875 24.86328125 34.46875 22 34 C19.69986249 31.75975785 17.97857103 29.15432422 16.1875 26.5 C15.68541016 25.78457031 15.18332031 25.06914062 14.66601562 24.33203125 C13.42911072 22.56502424 12.21255995 20.78380097 11 19 C9.05925139 19.27617533 9.05925139 19.27617533 7 20 C4.81005752 23.28491373 4.64722661 24.83095639 4.375 28.6875 C4.26285156 30.17830078 4.26285156 30.17830078 4.1484375 31.69921875 C4.09945313 32.45847656 4.05046875 33.21773437 4 34 C2.68 34 1.36 34 0 34 C0 22.78 0 11.56 0 0 Z " fill="#151465" transform="translate(483,118)"/>
<path d="M0 0 C1.32 0 2.64 0 4 0 C5.92471317 5.33835539 7.39891424 10.34979382 8 16 C8.66 16 9.32 16 10 16 C10.12117187 15.34773437 10.24234375 14.69546875 10.3671875 14.0234375 C11.28943989 9.21353658 12.30167277 4.60974535 14 0 C15.65 0 17.3 0 19 0 C20.4680946 4.1549847 21.86149045 8.13816282 22.5625 12.5 C22.706875 13.325 22.85125 14.15 23 15 C23.66 15.33 24.32 15.66 25 16 C25.66 11.71 26.32 7.42 27 3 C27.66 3 28.32 3 29 3 C29 2.01 29 1.02 29 0 C30.32 0 31.64 0 33 0 C28.96127563 16.8929385 28.96127563 16.8929385 26 24 C24.02 23.67 22.04 23.34 20 23 C19.66179834 21.4176994 19.32964061 19.83410625 19 18.25 C18.814375 17.36828125 18.62875 16.4865625 18.4375 15.578125 C18 13 18 13 18 9 C17.01 9 16.02 9 15 9 C14.87882813 9.83144531 14.75765625 10.66289062 14.6328125 11.51953125 C14.38144531 13.14955078 14.38144531 13.14955078 14.125 14.8125 C13.96257813 15.89144531 13.80015625 16.97039062 13.6328125 18.08203125 C13 21 13 21 11 24 C9.68 24 8.36 24 7 24 C4.26018069 16.06288986 1.59445693 8.26218593 0 0 Z " fill="#121265" transform="translate(512,128)"/>
<path d="M0 0 C0.78375 0.185625 1.5675 0.37125 2.375 0.5625 C4.97089775 1.25962266 4.97089775 1.25962266 7 0 C7.03738281 1.134375 7.07476562 2.26875 7.11328125 3.4375 C7.34188945 16.50825282 7.34188945 16.50825282 13.375 27.75 C15.96711813 30.04039129 15.96711813 30.04039129 18.8125 32 C21 34 21 34 21.3125 36.75 C21.209375 37.4925 21.10625 38.235 21 39 C17.8153343 40.0662628 16.20145054 40.04185251 13.1875 38.5625 C6.58948192 34.98036705 1.70074479 29.2284989 -0.57421875 22.0546875 C-2.06631441 14.85429929 -0.75684748 7.23059647 0 0 Z " fill="#131267" transform="translate(486,54)"/>
<path d="M0 0 C24 0 24 0 27 2 C27 3.32 27 4.64 27 6 C17.595 6.495 17.595 6.495 8 7 C7.67 13.27 7.34 19.54 7 26 C6.34 24.68 5.68 23.36 5 22 C4.34 22.33 3.68 22.66 3 23 C1.24318914 30.89096344 1.6901458 39.58175183 1.4375 47.625 C1.39431641 48.91535156 1.35113281 50.20570312 1.30664062 51.53515625 C1.20147852 54.69001933 1.09933396 57.84494895 1 61 C0.67 61 0.34 61 0 61 C0 40.87 0 20.74 0 0 Z " fill="#02015E" transform="translate(671,33)"/>
<path d="M0 0 C0.66 0.66 1.32 1.32 2 2 C1.625 5.125 1.625 5.125 1 8 C-2.46941546 7.54177532 -5.67395049 7.10868317 -9 6 C-15.47195302 5.41512721 -21.55870884 5.26503891 -27.30859375 8.578125 C-30.37713236 11.15768171 -32.21139698 14.45719018 -34 18 C-34.82638376 15.10765685 -35 13.11257569 -35 10 C-35.66 9.67 -36.32 9.34 -37 9 C-37 9.66 -37 10.32 -37 11 C-37.99 11.33 -38.98 11.66 -40 12 C-38.60997373 6.74878966 -35.3533325 3.95617686 -31 1 C-20.91917275 -4.03070184 -10.4022541 -4.14568811 0 0 Z " fill="#090965" transform="translate(645,34)"/>
<path d="M0 0 C0.66 0 1.32 0 2 0 C11 22.10679612 11 22.10679612 11 27 C4.4 27 -2.2 27 -9 27 C-8.30247469 24.20989874 -7.56450802 21.56508192 -6.66015625 18.84765625 C-6.40169922 18.07099609 -6.14324219 17.29433594 -5.87695312 16.49414062 C-5.60818359 15.69169922 -5.33941406 14.88925781 -5.0625 14.0625 C-4.79759766 13.26392578 -4.53269531 12.46535156 -4.25976562 11.64257812 C-2.94739298 7.71197321 -1.5997826 3.82556708 0 0 Z " fill="#EEEFF7" transform="translate(750,42)"/>
<path d="M0 0 C1.65 0 3.3 0 5 0 C5.33 5.94 5.66 11.88 6 18 C7.03125 16.68 8.0625 15.36 9.125 14 C12.52273726 10.06942004 12.52273726 10.06942004 16.4375 9.5 C17.283125 9.665 18.12875 9.83 19 10 C18.57847656 10.48210937 18.15695312 10.96421875 17.72265625 11.4609375 C17.17480469 12.09257812 16.62695312 12.72421875 16.0625 13.375 C15.51722656 14.00148437 14.97195313 14.62796875 14.41015625 15.2734375 C12.93041376 16.95632334 12.93041376 16.95632334 12 19 C12.27942455 20.67654729 12.60828247 22.34608154 13 24 C13.66 24 14.32 24 15 24 C16.2890625 25.6796875 16.2890625 25.6796875 17.625 27.875 C18.07101562 28.59429687 18.51703125 29.31359375 18.9765625 30.0546875 C20 32 20 32 20 34 C16.80732289 33.68997854 15.38660367 33.42853465 13.19921875 31.00390625 C12.70035156 30.19824219 12.20148437 29.39257812 11.6875 28.5625 C11.17574219 27.75941406 10.66398438 26.95632812 10.13671875 26.12890625 C9 24 9 24 9 22 C8.01 22.33 7.02 22.66 6 23 C5.67 26.3 5.34 29.6 5 33 C2.525 33.495 2.525 33.495 0 34 C0 22.78 0 11.56 0 0 Z " fill="#1C1A6C" transform="translate(559,118)"/>
<path d="M0 0 C1.16015625 0.11794922 1.16015625 0.11794922 2.34375 0.23828125 C4.5 0.6875 4.5 0.6875 7.5 2.6875 C7.5 4.0075 7.5 5.3275 7.5 6.6875 C6.18 6.3575 4.86 6.0275 3.5 5.6875 C3.5 5.0275 3.5 4.3675 3.5 3.6875 C0.53 3.6875 -2.44 3.6875 -5.5 3.6875 C-5.5 5.3375 -5.5 6.9875 -5.5 8.6875 C-4.51 8.77 -3.52 8.8525 -2.5 8.9375 C1.97456948 9.55058007 5.59570685 11.50718045 9.5 13.6875 C9.94359263 17.50239658 9.76035293 19.27452639 7.6875 22.5625 C3.07091313 25.64022458 -1.10043511 25.60127252 -6.5 24.6875 C-9.1875 22.875 -9.1875 22.875 -10.5 20.6875 C-10.5 19.6975 -10.5 18.7075 -10.5 17.6875 C-9.51 17.6875 -8.52 17.6875 -7.5 17.6875 C-7.5 18.3475 -7.5 19.0075 -7.5 19.6875 C-4.74921116 20.60442961 -3.14051087 20.79636083 -0.3125 20.75 C0.945625 20.729375 2.20375 20.70875 3.5 20.6875 C3.83 19.0375 4.16 17.3875 4.5 15.6875 C3.75234375 15.58953125 3.0046875 15.4915625 2.234375 15.390625 C-5.74506218 14.17908742 -5.74506218 14.17908742 -9.1875 11.9375 C-10.93192905 8.94705019 -11.00729428 7.09361874 -10.5 3.6875 C-7.72373313 -0.14639235 -4.4739797 -0.4995944 0 0 Z " fill="#292871" transform="translate(733.5,127.3125)"/>
<path d="M0 0 C2.4375 1.5 2.4375 1.5 4 4 C4.60263238 9.42369139 4.38276394 12.53475159 1 17 C0 18 0 18 -3.375 18.25 C-7 18 -7 18 -8.703125 16.859375 C-10.54938337 14.21232987 -10.39851253 12.19770432 -10.375 9 C-10.38273438 7.948125 -10.39046875 6.89625 -10.3984375 5.8125 C-10 3 -10 3 -8.69140625 1.15234375 C-5.80219685 -0.81605526 -3.37001606 -0.41386162 0 0 Z " fill="#F3F4FA" transform="translate(642,131)"/>
<path d="M0 0 C0.84691406 0.12503906 1.69382812 0.25007813 2.56640625 0.37890625 C8.56047224 1.37047305 12.49922915 2.56144008 16.21875 7.67578125 C17.90956069 10.34337784 19.0787663 12.23202853 18.75 15.4375 C18.5025 15.953125 18.255 16.46875 18 17 C16.02 17.33 14.04 17.66 12 18 C11.16094435 16.87926138 10.32892169 15.75325453 9.5 14.625 C9.0359375 13.99851562 8.571875 13.37203125 8.09375 12.7265625 C7 11 7 11 7 9 C4.69 8.34 2.38 7.68 0 7 C0 6.34 0 5.68 0 5 C-6.93 4.505 -6.93 4.505 -14 4 C-13.34 3.67 -12.68 3.34 -12 3 C-12 2.34 -12 1.68 -12 1 C-8.09616337 -1.76521761 -4.41487599 -0.79241364 0 0 Z " fill="#18176D" transform="translate(522,33)"/>
<path d="M0 0 C0.99 0.33 1.98 0.66 3 1 C3.33 1.99 3.66 2.98 4 4 C3.67 4.33 3.34 4.66 3 5 C1.28122208 12.90906401 0.54319348 20.93786522 0 29 C-2.31 29.66 -4.62 30.32 -7 31 C-7.0878954 27.64600151 -7.14068879 24.2923036 -7.1875 20.9375 C-7.21263672 19.99455078 -7.23777344 19.05160156 -7.26367188 18.08007812 C-7.32446488 12.26421361 -6.88421823 8.10284764 -4 3 C-1.8125 2.0625 -1.8125 2.0625 0 2 C0 1.34 0 0.68 0 0 Z " fill="#080864" transform="translate(608,43)"/>
<path d="M0 0 C2.35216618 2.28170959 2.95680436 3.68069104 3.3984375 6.9453125 C3.39070312 7.99460938 3.38296875 9.04390625 3.375 10.125 C3.38273438 11.17945313 3.39046875 12.23390625 3.3984375 13.3203125 C3.26695312 14.20460937 3.13546875 15.08890625 3 16 C-0.71499122 18.47666082 -2.60907888 18.54886514 -7 18 C-10.08221463 15.01721165 -10.22490266 11.98166314 -10.375 7.875 C-10.40114955 5.00726551 -10.40420563 3.55063941 -8.6953125 1.22265625 C-5.83504273 -0.84016504 -3.38675142 -0.42334393 0 0 Z " fill="#EFF0F8" transform="translate(668,131)"/>
<path d="M0 0 C2.64 0 5.28 0 8 0 C8 17.82 8 35.64 8 54 C7.67 54 7.34 54 7 54 C6.67 37.17 6.34 20.34 6 3 C4.35 2.67 2.7 2.34 1 2 C1 21.47 1 40.94 1 61 C13.21 61 25.42 61 38 61 C38 59.35 38 57.7 38 56 C28.1 56 18.2 56 8 56 C8 55.67 8 55.34 8 55 C18.23 55 28.46 55 39 55 C39 57.31 39 59.62 39 62 C26.13 62 13.26 62 0 62 C0 41.54 0 21.08 0 0 Z " fill="#12115C" transform="translate(554,33)"/>
<path d="M0 0 C4.31244188 -0.05859908 8.62477974 -0.09379686 12.9375 -0.125 C14.14986328 -0.14175781 15.36222656 -0.15851562 16.61132812 -0.17578125 C32.71756157 -0.26307791 32.71756157 -0.26307791 38.62890625 3.8125 C42.34052658 8.01150482 44.49182082 10.8125355 44.5 16.5625 C44.37358244 18.04564881 44.22125953 19.5280095 44 21 C43.67 21 43.34 21 43 21 C42.505 17.04 42.505 17.04 42 13 C38.69132469 15.20578354 37.88343932 16.23312136 36 20 C35.34 16.7 34.68 13.4 34 10 C28.35652914 9.08877472 22.77002113 8.70225954 17.0625 8.4375 C15.75055664 8.37272461 15.75055664 8.37272461 14.41210938 8.30664062 C12.27488005 8.20153099 10.13745762 8.10036015 8 8 C8 7.67 8 7.34 8 7 C14.27 7 20.54 7 27 7 C26.67 5.68 26.34 4.36 26 3 C23.42788678 1.71394339 21.43093034 1.78956059 18.5546875 1.68359375 C17.47832031 1.64169922 16.40195312 1.59980469 15.29296875 1.55664062 C13.60107422 1.49766602 13.60107422 1.49766602 11.875 1.4375 C10.73933594 1.39431641 9.60367188 1.35113281 8.43359375 1.30664062 C5.62252232 1.2003396 2.81136055 1.09830595 0 1 C0 0.67 0 0.34 0 0 Z " fill="#292875" transform="translate(671,32)"/>
<path d="M0 0 C2.61580794 1.80025581 3.34207353 3.11199906 5 6 C5.3125 9.875 5.3125 9.875 5 13 C4.67 13 4.34 13 4 13 C4 11.02 4 9.04 4 7 C3.34 7 2.68 7 2 7 C1.67 7.99 1.34 8.98 1 10 C-3.95 10 -8.9 10 -14 10 C-14 8.68 -14 7.36 -14 6 C-14.99 6.495 -14.99 6.495 -16 7 C-16.46651207 9.12576782 -16.46651207 9.12576782 -16.625 11.5625 C-16.69976563 12.38878906 -16.77453125 13.21507812 -16.8515625 14.06640625 C-16.90054688 14.70449219 -16.94953125 15.34257812 -17 16 C-17.33 16 -17.66 16 -18 16 C-18.62176166 7.10535406 -18.62176166 7.10535406 -16.3125 3 C-11.2897178 -1.34402785 -6.30527698 -1.93833108 0 0 Z " fill="#333278" transform="translate(698,128)"/>
<path d="M0 0 C1.9480957 0.00483398 1.9480957 0.00483398 3.93554688 0.00976562 C5.30729233 0.01812094 6.67903712 0.02658588 8.05078125 0.03515625 C9.4342432 0.0401729 10.81770688 0.04473552 12.20117188 0.04882812 C15.5885852 0.06063096 18.97591158 0.07709606 22.36328125 0.09765625 C22.36328125 1.74765625 22.36328125 3.39765625 22.36328125 5.09765625 C18.12744555 5.12234946 13.89164783 5.14051296 9.65576172 5.15258789 C8.21434805 5.15762099 6.77293949 5.16444798 5.33154297 5.1730957 C3.2613804 5.18520608 1.19128524 5.19089472 -0.87890625 5.1953125 C-2.12526855 5.20054932 -3.37163086 5.20578613 -4.65576172 5.21118164 C-7.63671875 5.09765625 -7.63671875 5.09765625 -9.63671875 4.09765625 C-9.63671875 3.10765625 -9.63671875 2.11765625 -9.63671875 1.09765625 C-6.21920222 -0.04151593 -3.60183938 -0.01572856 0 0 Z " fill="#010162" transform="translate(803.63671875,88.90234375)"/>
<path d="M0 0 C1.65 0 3.3 0 5 0 C5.12818318 11.37981825 4.79568202 22.64732258 4 34 C2.68 34 1.36 34 0 34 C0 22.78 0 11.56 0 0 Z " fill="#1C1B69" transform="translate(597,118)"/>
<path d="M0 0 C22.11 0 44.22 0 67 0 C67 2.64 67 5.28 67 8 C65.02 8 63.04 8 61 8 C61.33 7.01 61.66 6.02 62 5 C63.32 5.33 64.64 5.66 66 6 C66 4.35 66 2.7 66 1 C44.55 1 23.1 1 1 1 C1 2.98 1 4.96 1 7 C20.47 7 39.94 7 60 7 C60 7.33 60 7.66 60 8 C40.2 8 20.4 8 0 8 C0 5.36 0 2.72 0 0 Z " fill="#2E2C6E" transform="translate(754,133)"/>
<path d="M0 0 C1.32 0 2.64 0 4 0 C4 11.22 4 22.44 4 34 C0 33 0 33 -3 32 C-2.505 30.515 -2.505 30.515 -2 29 C-1.34 29 -0.68 29 0 29 C-0.14166357 27.08302063 -0.28849584 25.16642277 -0.4375 23.25 C-0.51871094 22.18265625 -0.59992187 21.1153125 -0.68359375 20.015625 C-0.94090773 17.56320038 -1.31812218 15.36078709 -2 13 C-1.34 13 -0.68 13 0 13 C0 8.71 0 4.42 0 0 Z " fill="#131261" transform="translate(671,118)"/>
<path d="M0 0 C-0.33 1.32 -0.66 2.64 -1 4 C-7.6 4 -14.2 4 -21 4 C-21.33 3.34 -21.66 2.68 -22 2 C-24.32156597 1.59270772 -26.6568787 1.25561323 -29 1 C-21.8119883 -6.1880117 -8.44071419 -2.85319916 0 0 Z " fill="#141367" transform="translate(645,34)"/>
<path d="M0 0 C2.97 0 5.94 0 9 0 C9.66 1.65 10.32 3.3 11 5 C10.01 5.495 10.01 5.495 9 6 C9 7.65 9 9.3 9 11 C8.34 11 7.68 11 7 11 C6.67 11.66 6.34 12.32 6 13 C6 12.01 6 11.02 6 10 C5.34 10 4.68 10 4 10 C3.67 10.99 3.34 11.98 3 13 C1.02 12.34 -0.96 11.68 -3 11 C-3.33 12.98 -3.66 14.96 -4 17 C-4.66 17 -5.32 17 -6 17 C-4.33846988 11.14340094 -2.52958084 5.5409866 0 0 Z " fill="#1B1B70" transform="translate(746,32)"/>
<path d="M0 0 C-0.33 1.32 -0.66 2.64 -1 4 C-2.65 3.67 -4.3 3.34 -6 3 C-8.61537297 6.95495425 -8.44264274 11.16827373 -8.625 15.75 C-8.66367187 16.54277344 -8.70234375 17.33554688 -8.7421875 18.15234375 C-8.836108 20.10119416 -8.91912822 22.05056451 -9 24 C-10.32 24 -11.64 24 -13 24 C-13 16.08 -13 8.16 -13 0 C-4 -1 -4 -1 0 0 Z " fill="#1E1C6A" transform="translate(721,128)"/>
<path d="M0 0 C0.66 0 1.32 0 2 0 C2.6875 1.6875 2.6875 1.6875 3 4 C1.87963867 6.61401367 1.87963867 6.61401367 0 9 C-2.63549805 9.56762695 -2.63549805 9.56762695 -5.76171875 9.48828125 C-6.87998047 9.47216797 -7.99824219 9.45605469 -9.15039062 9.43945312 C-10.90125977 9.37661133 -10.90125977 9.37661133 -12.6875 9.3125 C-14.45577148 9.27866211 -14.45577148 9.27866211 -16.25976562 9.24414062 C-19.17444548 9.18513901 -22.08659161 9.10286341 -25 9 C-24.34 7.68 -23.68 6.36 -23 5 C-13.595 4.505 -13.595 4.505 -4 4 C-4 3.34 -4 2.68 -4 2 C-2.68 2 -1.36 2 0 2 C0 1.34 0 0.68 0 0 Z " fill="#010166" transform="translate(767,66)"/>
<path d="M0 0 C5.94 0 11.88 0 18 0 C16.68 1.32 15.36 2.64 14 4 C13.67 4.99 13.34 5.98 13 7 C15.64 7.33 18.28 7.66 21 8 C21 8.33 21 8.66 21 9 C17.91674642 9.0582253 14.83363495 9.09367134 11.75 9.125 C10.44095703 9.15013672 10.44095703 9.15013672 9.10546875 9.17578125 C8.26113281 9.18222656 7.41679688 9.18867187 6.546875 9.1953125 C5.77182617 9.20578613 4.99677734 9.21625977 4.19824219 9.22705078 C1.74116461 8.97326556 0.12688458 8.22444152 -2 7 C-1.34 6.01 -0.68 5.02 0 4 C0 2.68 0 1.36 0 0 Z " fill="#19196B" transform="translate(506,87)"/>
<path d="M0 0 C1 2 2 4 3 6 C3.99 5.01 4.98 4.02 6 3 C7.3480932 6.660329 6.6336844 8.66550227 5.125 12.1875 C4.57199219 13.50814453 4.57199219 13.50814453 4.0078125 14.85546875 C3 17 3 17 2 18 C-0.67058851 18.14115161 -3.32432238 18.04247107 -6 18 C-5.31583566 13.82423832 -3.98634991 10.11919593 -2.4375 6.1875 C-1.75494141 4.44533203 -1.75494141 4.44533203 -1.05859375 2.66796875 C-0.70925781 1.78753906 -0.35992188 0.90710938 0 0 Z " fill="#0F0F69" transform="translate(729,77)"/>
<path d="M0 0 C2.31 0 4.62 0 7 0 C7 6.93 7 13.86 7 21 C6.34 21 5.68 21 5 21 C4.67 19.68 4.34 18.36 4 17 C3.01 17.33 2.02 17.66 1 18 C0.92652344 16.75283203 0.92652344 16.75283203 0.8515625 15.48046875 C0.77679687 14.39378906 0.70203125 13.30710937 0.625 12.1875 C0.55539062 11.10855469 0.48578125 10.02960938 0.4140625 8.91796875 C0.18804267 5.81373814 0.18804267 5.81373814 -2 3 C-1.34 2.01 -0.68 1.02 0 0 Z " fill="#020066" transform="translate(534,65)"/>
<path d="M0 0 C0 1.65 0 3.3 0 5 C-0.66 5 -1.32 5 -2 5 C-2 5.99 -2 6.98 -2 8 C-6.5865801 10.20155845 -9.80556615 11.48320315 -15 11 C-15.66 10.67 -16.32 10.34 -17 10 C-16.66693005 7.1092042 -16.21539844 6.17686199 -13.92578125 4.296875 C-5.26282657 -0.83097262 -5.26282657 -0.83097262 0 0 Z " fill="#100F67" transform="translate(536,84)"/>
<path d="M0 0 C1.32 0 2.64 0 4 0 C6.09570426 5.69398894 7.45018084 10.95198929 8 17 C8.99 17 9.98 17 11 17 C11.33 16.34 11.66 15.68 12 15 C12 17.64 12 20.28 12 23 C10.35 23.33 8.7 23.66 7 24 C4.26018069 16.06288986 1.59445693 8.26218593 0 0 Z " fill="#211F6C" transform="translate(512,128)"/>
<path d="M0 0 C1.32 0 2.64 0 4 0 C4.33 0.99 4.66 1.98 5 3 C4.34 3 3.68 3 3 3 C3 34.02 3 65.04 3 97 C2.01 97.495 2.01 97.495 1 98 C1.00222061 96.83124329 1.00444122 95.66248657 1.00672913 94.45831299 C1.02698774 83.45188368 1.04198529 72.44545815 1.05181217 61.43901443 C1.05703406 55.7802986 1.06411918 50.1215978 1.07543945 44.46289062 C1.0862929 39.00346478 1.09228207 33.54405341 1.09487724 28.08461761 C1.09672705 26.00018842 1.10033916 23.91576002 1.10573006 21.83133698 C1.11297303 18.91520974 1.11398955 15.99914257 1.11352539 13.08300781 C1.11712067 12.21841949 1.12071594 11.35383118 1.12442017 10.46304321 C1.1230455 9.66661407 1.12167084 8.87018494 1.12025452 8.04962158 C1.12163721 7.01536985 1.12163721 7.01536985 1.12304783 5.96022415 C0.99196686 3.87202738 0.56672808 2.01025076 0 0 Z " fill="#13105D" transform="translate(438,46)"/>
<path d="M0 0 C1.65 0.33 3.3 0.66 5 1 C5.66 0.67 6.32 0.34 7 0 C6.67 5.94 6.34 11.88 6 18 C5.34 17.67 4.68 17.34 4 17 C3.67 18.32 3.34 19.64 3 21 C2.34 21 1.68 21 1 21 C1 19.35 1 17.7 1 16 C0.34 16 -0.32 16 -1 16 C-0.67 10.72 -0.34 5.44 0 0 Z " fill="#010163" transform="translate(486,54)"/>
<path d="M0 0 C5.61 0 11.22 0 17 0 C17 1.32 17 2.64 17 4 C15.68 4 14.36 4 13 4 C13 4.66 13 5.32 13 6 C12.34 6 11.68 6 11 6 C11 6.66 11 7.32 11 8 C3.61195219 8.36334661 3.61195219 8.36334661 1 6.8125 C0 5 0 5 0 0 Z " fill="#EAEAF7" transform="translate(685,141)"/>
<path d="M0 0 C0.33 0.99 0.66 1.98 1 3 C1.7425 3.268125 2.485 3.53625 3.25 3.8125 C6.90985458 5.39289175 9.26829381 7.43557143 11 11 C11.40339678 14.37844805 11.30093404 17.61616392 11 21 C10.67 21 10.34 21 10 21 C10 18.03 10 15.06 10 12 C9.01 11.67 8.02 11.34 7 11 C6.01 12.485 6.01 12.485 5 14 C4.34 14 3.68 14 3 14 C3 16.64 3 19.28 3 22 C2.67 22 2.34 22 2 22 C1.67 17.71 1.34 13.42 1 9 C-0.32 8.67 -1.64 8.34 -3 8 C-4.3479743 7.36345658 -5.68596724 6.70394612 -7 6 C-5.02 6 -3.04 6 -1 6 C-1.020625 5.195625 -1.04125 4.39125 -1.0625 3.5625 C-1 1 -1 1 0 0 Z " fill="#1D1C6F" transform="translate(707,60)"/>
<path d="M0 0 C2.97 0.495 2.97 0.495 6 1 C4.90301833 6.69139902 3.45946923 11.74567937 1 17 C-0.32 16.67 -1.64 16.34 -3 16 C-3.33 16.99 -3.66 17.98 -4 19 C-4.33 18.34 -4.66 17.68 -5 17 C-4.505 15.515 -4.505 15.515 -4 14 C-4 12.989375 -4 11.97875 -4 10.9375 C-4 8 -4 8 -3 6 C-2.34 6 -1.68 6 -1 6 C-0.67 4.02 -0.34 2.04 0 0 Z " fill="#070663" transform="translate(743,43)"/>
<path d="M0 0 C1.65 0 3.3 0 5 0 C5.53394179 1.4117783 6.05165104 2.82970244 6.5625 4.25 C6.85253906 5.03890625 7.14257812 5.8278125 7.44140625 6.640625 C8.04522837 9.19103452 7.8473932 10.55322229 7 13 C6.67 12.01 6.34 11.02 6 10 C5.01 11.485 5.01 11.485 4 13 C4 11.68 4 10.36 4 9 C3.01 9 2.02 9 1 9 C0.34 12.96 -0.32 16.92 -1 21 C-1.66 19.68 -2.32 18.36 -3 17 C-3.99 16.67 -4.98 16.34 -6 16 C-5.34 16 -4.68 16 -4 16 C-3.87882813 15.34773437 -3.75765625 14.69546875 -3.6328125 14.0234375 C-2.71056011 9.21353658 -1.69832723 4.60974535 0 0 Z " fill="#22216E" transform="translate(526,128)"/>
<path d="M0 0 C0.66 0.33 1.32 0.66 2 1 C1.690625 1.763125 1.38125 2.52625 1.0625 3.3125 C0.32106407 5.18789677 -0.36228217 7.08684652 -1 9 C-1.639375 9.309375 -2.27875 9.61875 -2.9375 9.9375 C-5.45468915 11.2342338 -5.96886948 12.4221737 -7 15 C-9.31 15 -11.62 15 -14 15 C-13.75 11.625 -13.75 11.625 -13 8 C-10.9375 6.5625 -10.9375 6.5625 -9 6 C-9 5.34 -9 4.68 -9 4 C-8.43410156 3.87882812 -7.86820312 3.75765625 -7.28515625 3.6328125 C-6.18494141 3.38144531 -6.18494141 3.38144531 -5.0625 3.125 C-4.33160156 2.96257812 -3.60070312 2.80015625 -2.84765625 2.6328125 C-0.79299706 2.17038477 -0.79299706 2.17038477 0 0 Z " fill="#020165" transform="translate(380,96)"/>
<path d="M0 0 C1.32 0 2.64 0 4 0 C4 7.92 4 15.84 4 24 C2.68 24 1.36 24 0 24 C0 16.08 0 8.16 0 0 Z " fill="#111056" transform="translate(549,128)"/>
<path d="M0 0 C0.33 0 0.66 0 1 0 C1.13057961 11.68272849 1.26098042 23.36545897 1.39115143 35.04819202 C1.45159721 40.47264008 1.51210514 45.89708742 1.57275391 51.3215332 C1.63125414 56.55401641 1.6895927 61.78650139 1.74781799 67.01898766 C1.77008781 69.01771802 1.79241641 71.01644773 1.81480408 73.01517677 C1.84609156 75.80935118 1.8771722 78.60352781 1.90820312 81.39770508 C1.91755386 82.22848572 1.9269046 83.05926636 1.9365387 83.91522217 C1.97000573 86.94365805 2 89.9713521 2 93 C1.34 92.67 0.68 92.34 0 92 C0 61.64 0 31.28 0 0 Z " fill="#04015A" transform="translate(311,51)"/>
<path d="M0 0 C2 3.875 2 3.875 2 5 C2.99 4.67 3.98 4.34 5 4 C6 7 6 7 3 15 C9.27 15 15.54 15 22 15 C22 15.33 22 15.66 22 16 C14.74 16 7.48 16 0 16 C-0.33 15.34 -0.66 14.68 -1 14 C-0.67 13.34 -0.34 12.68 0 12 C-1.32 12 -2.64 12 -4 12 C-3.52494322 10.18641846 -3.04483958 8.37415821 -2.5625 6.5625 C-2.29566406 5.55316406 -2.02882813 4.54382812 -1.75390625 3.50390625 C-1 1 -1 1 0 0 Z " fill="#1E1E6E" transform="translate(738,54)"/>
<path d="M0 0 C-0.66 1.65 -1.32 3.3 -2 5 C-2.59425781 4.79503906 -3.18851563 4.59007812 -3.80078125 4.37890625 C-10.20772565 2.29640022 -16.28237754 1.37036322 -23 1 C-22.34 0.67 -21.68 0.34 -21 0 C-21 -0.66 -21 -1.32 -21 -2 C-14.85314425 -6.35402282 -6.32806256 -2.32907858 0 0 Z " fill="#010163" transform="translate(531,36)"/>
<path d="M0 0 C0.57142857 10.8994709 0.57142857 10.8994709 -3 15 C-3.99 15.33 -4.98 15.66 -6 16 C-6.66 15.34 -7.32 14.68 -8 14 C-9.9931567 13.97624074 -9.9931567 13.97624074 -12.125 14.375 C-13.40375 14.58125 -14.6825 14.7875 -16 15 C-13 13 -13 13 -10.9375 12.0625 C-8.67738896 11.01748702 -8.67738896 11.01748702 -7 8 C-6.896875 7.175 -6.79375 6.35 -6.6875 5.5 C-6 3 -6 3 -3.5 1.1875 C-1 0 -1 0 0 0 Z " fill="#0B0B66" transform="translate(714,44)"/>
<path d="M0 0 C4.31244188 -0.05859908 8.62477974 -0.09379686 12.9375 -0.125 C14.14986328 -0.14175781 15.36222656 -0.15851562 16.61132812 -0.17578125 C23.4176856 -0.21267208 29.42849852 0.19939442 36 2 C34.68 3.32 33.36 4.64 32 6 C32.495 6.99 32.495 6.99 33 8 C24.75 8 16.5 8 8 8 C8 7.67 8 7.34 8 7 C14.27 7 20.54 7 27 7 C26.67 5.68 26.34 4.36 26 3 C23.42788678 1.71394339 21.43093034 1.78956059 18.5546875 1.68359375 C17.47832031 1.64169922 16.40195312 1.59980469 15.29296875 1.55664062 C13.60107422 1.49766602 13.60107422 1.49766602 11.875 1.4375 C10.73933594 1.39431641 9.60367188 1.35113281 8.43359375 1.30664062 C5.62252232 1.2003396 2.81136055 1.09830595 0 1 C0 0.67 0 0.34 0 0 Z " fill="#2C2B79" transform="translate(671,32)"/>
<path d="M0 0 C0.99 0 1.98 0 3 0 C3 6.27 3 12.54 3 19 C2.34 19 1.68 19 1 19 C1.33 20.65 1.66 22.3 2 24 C2.33 24 2.66 24 3 24 C3 26.97 3 29.94 3 33 C2.01 33 1.02 33 0 33 C0 22.11 0 11.22 0 0 Z " fill="#04035C" transform="translate(560,119)"/>
<path d="M0 0 C5.28 0 10.56 0 16 0 C15.34 1.98 14.68 3.96 14 6 C7.97365319 7.06347297 4.17023869 7.44682579 -1 4 C-0.67 2.68 -0.34 1.36 0 0 Z " fill="#020261" transform="translate(623,89)"/>
<path d="M0 0 C0.33 0 0.66 0 1 0 C1.03738281 0.79664063 1.07476563 1.59328125 1.11328125 2.4140625 C1.48211462 8.35878857 1.9630142 12.75429726 5 18 C4.67 18.66 4.34 19.32 4 20 C3.01 20 2.02 20 1 20 C0.34 21.32 -0.32 22.64 -1 24 C-1.66 24 -2.32 24 -3 24 C-3.53229326 22.73392393 -4.05044544 21.46189588 -4.5625 20.1875 C-4.85253906 19.47980469 -5.14257812 18.77210937 -5.44140625 18.04296875 C-6 16 -6 16 -5 13 C-3.68 12.67 -2.36 12.34 -1 12 C-0.67 8.04 -0.34 4.08 0 0 Z " fill="#1B1A6B" transform="translate(608,60)"/>
<path d="M0 0 C1.65 0 3.3 0 5 0 C5 6.6 5 13.2 5 20 C5.66 20 6.32 20 7 20 C6.34 24.29 5.68 28.58 5 33 C4.67 33 4.34 33 4 33 C3.67 30.69 3.34 28.38 3 26 C2.67 26 2.34 26 2 26 C2 24.02 2 22.04 2 20 C2.66 20 3.32 20 4 20 C4 13.73 4 7.46 4 1 C3.01 1 2.02 1 1 1 C1 11.89 1 22.78 1 34 C0.67 34 0.34 34 0 34 C0 22.78 0 11.56 0 0 Z " fill="#424183" transform="translate(559,118)"/>
<path d="M0 0 C0.99 0 1.98 0 3 0 C3.25 3.3125 3.25 3.3125 3 7 C0.82854685 9.21204106 -0.58828413 9.93279344 -3.65625 10.43359375 C-11.34143229 10.44415032 -11.34143229 10.44415032 -14.6875 8.1875 C-16 6 -16 6 -16 3 C-15.01 3 -14.02 3 -13 3 C-13 3.66 -13 4.32 -13 5 C-10.24921116 5.91692961 -8.64051087 6.10886083 -5.8125 6.0625 C-4.554375 6.041875 -3.29625 6.02125 -2 6 C-1.34 4.02 -0.68 2.04 0 0 Z " fill="#161263" transform="translate(739,142)"/>
<path d="M0 0 C0.66 0 1.32 0 2 0 C2 0.66 2 1.32 2 2 C1.34 2.66 0.68 3.32 0 4 C1.98 4.66 3.96 5.32 6 6 C3.47043472 9.0916909 0.77545388 9.90931332 -3 11 C-3 11.66 -3 12.32 -3 13 C-5.64 13 -8.28 13 -11 13 C-9.68 12.67 -8.36 12.34 -7 12 C-6.32041397 9.60280568 -6.32041397 9.60280568 -6 7 C-6.66 6.34 -7.32 5.68 -8 5 C-7.05125 4.54625 -6.1025 4.0925 -5.125 3.625 C-1.99686321 2.19761746 -1.99686321 2.19761746 0 0 Z " fill="#1F1F72" transform="translate(644,83)"/>
<path d="M0 0 C1.32 0.33 2.64 0.66 4 1 C4.31433405 6.23890086 3.80778856 9.52833673 1 14 C-2.20380017 16.13586678 -3.01939967 16.23132175 -6.6875 16.125 C-7.89986328 16.09792969 -7.89986328 16.09792969 -9.13671875 16.0703125 C-9.75160156 16.04710937 -10.36648438 16.02390625 -11 16 C-9 14 -9 14 -6.5625 13.1875 C-3.24276938 11.64908825 -2.47692529 10.3230819 -1 7 C-0.28076792 3.30476048 -0.28076792 3.30476048 0 0 Z " fill="#0D0B5C" transform="translate(646,136)"/>
<path d="M0 0 C2.31 0 4.62 0 7 0 C7.33 0.66 7.66 1.32 8 2 C7.67 2.66 7.34 3.32 7 4 C6.34 4 5.68 4 5 4 C2.8480563 7.22791555 2.79913557 8.28400809 3 12 C0 12 0 12 -3 10 C-4.15317663 7.02096037 -4.0448029 6.13440869 -3 3 C-2.34 3 -1.68 3 -1 3 C-0.67 2.01 -0.34 1.02 0 0 Z " fill="#0E0D6D" transform="translate(388,68)"/>
<path d="M0 0 C0.33 0 0.66 0 1 0 C1.04898438 0.84304687 1.09796875 1.68609375 1.1484375 2.5546875 C1.22320313 3.65039062 1.29796875 4.74609375 1.375 5.875 C1.44460938 6.96554688 1.51421875 8.05609375 1.5859375 9.1796875 C1.73253491 12.13046474 1.73253491 12.13046474 4 14 C5.98821313 14.39764263 7.98944339 14.73775349 10 15 C8.02 15.99 8.02 15.99 6 17 C7.98 17.33 9.96 17.66 12 18 C12 18.33 12 18.66 12 19 C2.62705187 20.03414314 2.62705187 20.03414314 -0.84375 17.828125 C-4.94730424 12.81797157 -4.50236377 7.17349258 -4 1 C-3.67 1 -3.34 1 -3 1 C-2.67 3.97 -2.34 6.94 -2 10 C-1.34 10 -0.68 10 0 10 C0 6.7 0 3.4 0 0 Z " fill="#36347B" transform="translate(631,134)"/>
<path d="M0 0 C0.70511719 0.1134375 1.41023438 0.226875 2.13671875 0.34375 C2.13671875 3.34375 2.13671875 3.34375 0.5625 4.9921875 C-0.13488281 5.56195313 -0.83226562 6.13171875 -1.55078125 6.71875 C-4.83192494 9.46372101 -7.88664411 12.27409295 -10.86328125 15.34375 C-11.19328125 14.35375 -11.52328125 13.36375 -11.86328125 12.34375 C-12.52328125 12.01375 -13.18328125 11.68375 -13.86328125 11.34375 C-12.14894867 9.4943124 -10.41916116 7.66545892 -8.67578125 5.84375 C-8.19302734 5.31910156 -7.71027344 4.79445313 -7.21289062 4.25390625 C-4.83009709 1.7911532 -3.46580788 0.41608608 0 0 Z " fill="#2F2D76" transform="translate(506.86328125,117.65625)"/>
<path d="M0 0 C0.66 0 1.32 0 2 0 C2 1.32 2 2.64 2 4 C6.95 4 11.9 4 17 4 C17.33 2.68 17.66 1.36 18 0 C18.66 0.33 19.32 0.66 20 1 C20 2.98 20 4.96 20 7 C13.73 6.67 7.46 6.34 1 6 C0.67 6.66 0.34 7.32 0 8 C0.66 8 1.32 8 2 8 C2 9.32 2 10.64 2 12 C1.01 12 0.02 12 -1 12 C-1.02687279 10.18757948 -1.04633715 8.37504767 -1.0625 6.5625 C-1.07410156 5.55316406 -1.08570313 4.54382813 -1.09765625 3.50390625 C-1 1 -1 1 0 0 Z " fill="#07055A" transform="translate(682,134)"/>
<path d="M0 0 C3.5625 0.25 3.5625 0.25 6.5625 2.25 C6.5625 3.57 6.5625 4.89 6.5625 6.25 C2.2725 6.25 -2.0175 6.25 -6.4375 6.25 C-4.96527778 0.36111111 -4.96527778 0.36111111 0 0 Z " fill="#E4E5F8" transform="translate(691.4375,130.75)"/>
<path d="M0 0 C3 1.1875 3 1.1875 5 3.1875 C5.125 5.8125 5.125 5.8125 5 8.1875 C2.21176345 9.2201802 1.1322726 9.23259293 -1.75 8.25 C-2.4925 7.899375 -3.235 7.54875 -4 7.1875 C-4.33 4.8775 -4.66 2.5675 -5 0.1875 C-3 -0.8125 -3 -0.8125 0 0 Z " fill="#15146E" transform="translate(502,84.8125)"/>
<path d="M0 0 C2.97 0 5.94 0 9 0 C9.33 0.66 9.66 1.32 10 2 C10.99 2.33 11.98 2.66 13 3 C13 3.66 13 4.32 13 5 C11.68 5 10.36 5 9 5 C9.33 5.99 9.66 6.98 10 8 C6.7 7.01 3.4 6.02 0 5 C0 3.35 0 1.7 0 0 Z " fill="#E6E6F6" transform="translate(728,131)"/>
<path d="M0 0 C0.66 0.33 1.32 0.66 2 1 C1.67 1.66 1.34 2.32 1 3 C2.32 3 3.64 3 5 3 C5.625 5.375 5.625 5.375 6 8 C4 10 4 10 0.375 10.125 C-0.73875 10.08375 -1.8525 10.0425 -3 10 C-3.5534764 7.92446352 -4 6.15634036 -4 4 C-2.70766393 2.62689293 -1.37562854 1.28965176 0 0 Z " fill="#030364" transform="translate(421,95)"/>
<path d="M0 0 C0.33 0.66 0.66 1.32 1 2 C3.32156597 2.40729228 5.6568787 2.74438677 8 3 C7.34 4.65 6.68 6.3 6 8 C6.5775 8.12375 7.155 8.2475 7.75 8.375 C10 9 10 9 14 11 C11.03 11 8.06 11 5 11 C5 10.34 5 9.68 5 9 C3.02 8.34 1.04 7.68 -1 7 C-0.67 4.69 -0.34 2.38 0 0 Z " fill="#080763" transform="translate(616,85)"/>
<path d="M0 0 C2.86724686 0.57344937 3.8614515 0.8614515 6 3 C6.125 5.625 6.125 5.625 6 8 C3.6739143 8.38063221 1.33944736 8.71269945 -1 9 C-2 8 -2 8 -2.0625 5.4375 C-2.041875 4.633125 -2.02125 3.82875 -2 3 C-1.34 3 -0.68 3 0 3 C0 2.01 0 1.02 0 0 Z " fill="#0A0861" transform="translate(405,112)"/>
<path d="M0 0 C1.32 0 2.64 0 4 0 C3.63515574 2.55390984 2.94055033 4.0891745 1.5 6.25 C-2.19399371 8.8357956 -5.62563417 8.33648968 -10 8 C-10.33 7.01 -10.66 6.02 -11 5 C-7.92382812 4.70703125 -7.92382812 4.70703125 -4.84765625 4.4140625 C-4.23792969 4.27742187 -3.62820313 4.14078125 -3 4 C-2.67 3.34 -2.34 2.68 -2 2 C-1.34 2 -0.68 2 0 2 C0 1.34 0 0.68 0 0 Z " fill="#232269" transform="translate(698,145)"/>
<path d="M0 0 C4.75 0.75 4.75 0.75 7 3 C6.77551034 8.72448621 4.98308285 12.28480453 2 17 C1.67 17 1.34 17 1 17 C0.67 14.36 0.34 11.72 0 9 C0.66 9 1.32 9 2 9 C2.33 8.01 2.66 7.02 3 6 C3.66 6.33 4.32 6.66 5 7 C5 6.01 5 5.02 5 4 C2.03 3.505 2.03 3.505 -1 3 C-0.67 2.01 -0.34 1.02 0 0 Z " fill="#0E0C64" transform="translate(390,65)"/>
<path d="M0 0 C0.99 0.495 0.99 0.495 2 1 C1.67 1.99 1.34 2.98 1 4 C0.67 2.68 0.34 1.36 0 0 Z M-4 1 C-2 2 -2 2 0 4 C0.99 4.33 1.98 4.66 3 5 C2.00269864 7.4932534 1.34925469 8.77467439 -0.9375 10.25 C-3 11 -3 11 -6 11 C-6 10.34 -6 9.68 -6 9 C-5.34 8.67 -4.68 8.34 -4 8 C-3.67 7.01 -3.34 6.02 -3 5 C-3.99 4.67 -4.98 4.34 -6 4 C-6 3.34 -6 2.68 -6 2 C-5.34 1.67 -4.68 1.34 -4 1 Z " fill="#16166C" transform="translate(710,83)"/>
<path d="M0 0 C-0.875 6.875 -0.875 6.875 -2 8 C-3.66617115 8.04063832 -5.33388095 8.042721 -7 8 C-7.33 6.02 -7.66 4.04 -8 2 C-4.77208445 -0.1519437 -3.71599191 -0.20086443 0 0 Z " fill="#050469" transform="translate(419,82)"/>
<path d="M0 0 C3.11954738 0.33724836 4.6209965 0.6209965 6.875 2.875 C7.24625 3.57625 7.6175 4.2775 8 5 C7.67 5.99 7.34 6.98 7 8 C5.35 8.33 3.7 8.66 2 9 C2 8.01 2 7.02 2 6 C0.05990478 4.29467677 0.05990478 4.29467677 -2 3 C-1.34 2.01 -0.68 1.02 0 0 Z " fill="#0A0B66" transform="translate(704,35)"/>
<path d="M0 0 C0.66 0.33 1.32 0.66 2 1 C1.67 2.98 1.34 4.96 1 7 C-2.46941546 6.54177532 -5.67395049 6.10868317 -9 5 C-11.05893621 4.77674186 -13.12233653 4.59294241 -15.1875 4.4375 C-16.27417969 4.35371094 -17.36085938 4.26992188 -18.48046875 4.18359375 C-19.31191406 4.12300781 -20.14335938 4.06242187 -21 4 C-21 3.67 -21 3.34 -21 3 C-14.4 3 -7.8 3 -1 3 C-0.67 2.01 -0.34 1.02 0 0 Z " fill="#292875" transform="translate(645,35)"/>
<path d="M0 0 C0.33 0.66 0.66 1.32 1 2 C0.06421005 4.35981813 -0.93347808 6.69631264 -2 9 C-3.65 9 -5.3 9 -7 9 C-7.66 7.68 -8.32 6.36 -9 5 C-6.0534615 3.19933758 -3.11198065 1.49836105 0 0 Z " fill="#040364" transform="translate(369,116)"/>
<path d="M0 0 C5.28 0 10.56 0 16 0 C14.68 1.32 13.36 2.64 12 4 C11.67 4.99 11.34 5.98 11 7 C13.64 7.33 16.28 7.66 19 8 C19 8.33 19 8.66 19 9 C17.54207116 9.05399736 16.08357288 9.09279177 14.625 9.125 C13.81289063 9.14820312 13.00078125 9.17140625 12.1640625 9.1953125 C10 9 10 9 8 7 C8.33 6.67 8.66 6.34 9 6 C8.071875 5.38125 7.14375 4.7625 6.1875 4.125 C4.125 2.75 2.0625 1.375 0 0 Z " fill="#4A4993" transform="translate(508,87)"/>
<path d="M0 0 C4.23830976 2.82553984 3.97715348 5.12180888 5 10 C2 12 2 12 -1 12 C-1.22162329 10.37675914 -1.42689803 8.751279 -1.625 7.125 C-1.74101563 6.22007813 -1.85703125 5.31515625 -1.9765625 4.3828125 C-1.98429688 3.59648438 -1.99203125 2.81015625 -2 2 C-1.34 1.34 -0.68 0.68 0 0 Z " fill="#020166" transform="translate(762,55)"/>
<path d="M0 0 C2.3129482 2.3129482 2.49580975 3.47904875 3.125 6.625 C3.29257812 7.44226562 3.46015625 8.25953125 3.6328125 9.1015625 C3.81457031 10.04128906 3.81457031 10.04128906 4 11 C2.68 11.33 1.36 11.66 0 12 C-1.32 10.02 -2.64 8.04 -4 6 C-3.34 5.67 -2.68 5.34 -2 5 C-2 4.01 -2 3.02 -2 2 C-1.34 2 -0.68 2 0 2 C0 1.34 0 0.68 0 0 Z " fill="#070665" transform="translate(534,39)"/>
<path d="M0 0 C0.33 0 0.66 0 1 0 C1 5.94 1 11.88 1 18 C0.01 18 -0.98 18 -2 18 C-2.054348 15.9377952 -2.09294961 13.87517184 -2.125 11.8125 C-2.14820313 10.66394531 -2.17140625 9.51539063 -2.1953125 8.33203125 C-2.00484152 5.08259628 -1.39360127 2.91339479 0 0 Z " fill="#05025D" transform="translate(711,133)"/>
<path d="M0 0 C-0.57584432 2.38564077 -1.22227595 4.66682784 -2 7 C2.29 7 6.58 7 11 7 C11.33 6.34 11.66 5.68 12 5 C12 5.99 12 6.98 12 8 C7.05 8 2.1 8 -3 8 C-3 6.68 -3 5.36 -3 4 C-3.99 4.495 -3.99 4.495 -5 5 C-5.46651207 7.12576782 -5.46651207 7.12576782 -5.625 9.5625 C-5.69976563 10.38878906 -5.77453125 11.21507812 -5.8515625 12.06640625 C-5.90054688 12.70449219 -5.94953125 13.34257812 -6 14 C-6.33 14 -6.66 14 -7 14 C-7.29035556 10.61897078 -7.4386474 7.37177161 -7 4 C-3.38095238 0 -3.38095238 0 0 0 Z " fill="#50508F" transform="translate(687,130)"/>
<path d="M0 0 C0.66 0 1.32 0 2 0 C2.33 6.93 2.66 13.86 3 21 C2.01 21 1.02 21 0 21 C0 14.07 0 7.14 0 0 Z " fill="#02015E" transform="translate(550,129)"/>
<path d="M0 0 C1.43836751 0.11458693 2.87570966 0.24209116 4.3125 0.375 C5.51326172 0.47941406 5.51326172 0.47941406 6.73828125 0.5859375 C9 1 9 1 12 3 C12 4.32 12 5.64 12 7 C10.0625 6.625 10.0625 6.625 8 6 C7.67 5.34 7.34 4.68 7 4 C5.10466658 3.53476937 5.10466658 3.53476937 2.9375 3.375 C1.638125 3.25125 0.33875 3.1275 -1 3 C-0.67 2.01 -0.34 1.02 0 0 Z " fill="#161561" transform="translate(729,127)"/>
<path d="M0 0 C0.66 0 1.32 0 2 0 C1.67 4.62 1.34 9.24 1 14 C0.01 14.33 -0.98 14.66 -2 15 C-2.05406122 13.06280622 -2.09282025 11.12518079 -2.125 9.1875 C-2.14820313 8.10855469 -2.17140625 7.02960938 -2.1953125 5.91796875 C-2 3 -2 3 0 0 Z " fill="#0E0C5F" transform="translate(630,130)"/>
<path d="M0 0 C1.32 0 2.64 0 4 0 C3.01 3.96 2.02 7.92 1 12 C0.67 11.01 0.34 10.02 0 9 C-0.66 9 -1.32 9 -2 9 C-2.33 9.66 -2.66 10.32 -3 11 C-2.67 8.36 -2.34 5.72 -2 3 C-1.34 3 -0.68 3 0 3 C0 2.01 0 1.02 0 0 Z " fill="#171761" transform="translate(541,128)"/>
<path d="M0 0 C0.99 0.33 1.98 0.66 3 1 C3.33 3.31 3.66 5.62 4 8 C1.36 8 -1.28 8 -4 8 C-2.66666667 5.33333333 -1.33333333 2.66666667 0 0 Z " fill="#141367" transform="translate(776,87)"/>
<path d="M0 0 C2.125 0.375 2.125 0.375 4 1 C4 2.32 4 3.64 4 5 C3.34 5 2.68 5 2 5 C2 5.66 2 6.32 2 7 C0.02 7.33 -1.96 7.66 -4 8 C-4.33 7.01 -4.66 6.02 -5 5 C-3.33333333 3.33333333 -1.66666667 1.66666667 0 0 Z " fill="#010266" transform="translate(532,84)"/>
<path d="M0 0 C0.99 0.66 1.98 1.32 3 2 C3 2.99 3 3.98 3 5 C3.99 6.485 3.99 6.485 5 8 C5 8.66 5 9.32 5 10 C5.66 10.33 6.32 10.66 7 11 C6.01 11 5.02 11 4 11 C4 10.34 4 9.68 4 9 C3.443125 8.79375 2.88625 8.5875 2.3125 8.375 C-0.92501302 6.44999226 -2.68231141 3.96149098 -5 1 C-2.525 1.495 -2.525 1.495 0 2 C0 1.34 0 0.68 0 0 Z " fill="#181668" transform="translate(334,105)"/>
<path d="M0 0 C1.98 0 3.96 0 6 0 C6 0.33 6 0.66 6 1 C8.97 1.495 8.97 1.495 12 2 C11.67 2.99 11.34 3.98 11 5 C8.03 5 5.06 5 2 5 C1.34 3.35 0.68 1.7 0 0 Z " fill="#020165" transform="translate(633,33)"/>
<path d="M0 0 C0.99 0 1.98 0 3 0 C3 0.66 3 1.32 3 2 C3.99 2.33 4.98 2.66 6 3 C6 3.66 6 4.32 6 5 C8.31 5 10.62 5 13 5 C13 5.66 13 6.32 13 7 C4.88277512 7.62440191 4.88277512 7.62440191 1.4375 5.1875 C0 3 0 3 0 0 Z " fill="#08055B" transform="translate(723,145)"/>
<path d="M0 0 C0.99 0 1.98 0 3 0 C3 5.61 3 11.22 3 17 C2.67 17 2.34 17 2 17 C2 15.02 2 13.04 2 11 C1.34 11 0.68 11 0 11 C0 7.37 0 3.74 0 0 Z " fill="#020258" transform="translate(671,119)"/>
<path d="M0 0 C3.67230705 3.07999946 4.56802365 5.2482602 5 10 C1.77208445 12.1519437 0.71599191 12.20086443 -3 12 C-3.33 10.68 -3.66 9.36 -4 8 C-2.02 8.66 -0.04 9.32 2 10 C2 8.35 2 6.7 2 5 C1.34 4.67 0.68 4.34 0 4 C0 2.68 0 1.36 0 0 Z " fill="#1C1B63" transform="translate(346,109)"/>
<path d="M0 0 C0.33 0.99 0.66 1.98 1 3 C3.50447516 4.21869929 3.50447516 4.21869929 6 5 C6 5.99 6 6.98 6 8 C4.35 7.01 2.7 6.02 1 5 C1 6.32 1 7.64 1 9 C-1.92879371 8.37240135 -4.36095629 7.41377341 -7 6 C-5.02 6 -3.04 6 -1 6 C-1.020625 5.195625 -1.04125 4.39125 -1.0625 3.5625 C-1 1 -1 1 0 0 Z " fill="#171764" transform="translate(707,60)"/>
<path d="M0 0 C0.99 0 1.98 0 3 0 C3 4.29 3 8.58 3 13 C2.01 13 1.02 13 0 13 C0 8.71 0 4.42 0 0 Z " fill="#02025D" transform="translate(484,138)"/>
<path d="M0 0 C0 2.97 0 5.94 0 9 C-0.66 8.01 -1.32 7.02 -2 6 C-2.45375 6.825 -2.9075 7.65 -3.375 8.5 C-3.91125 9.325 -4.4475 10.15 -5 11 C-5.66 11 -6.32 11 -7 11 C-6.73686441 5.64957627 -6.73686441 5.64957627 -6 3 C-2.25 0 -2.25 0 0 0 Z " fill="#02025D" transform="translate(714,44)"/>
<path d="M0 0 C-1.98 0.99 -1.98 0.99 -4 2 C-1.03 2.495 -1.03 2.495 2 3 C2 3.33 2 3.66 2 4 C-1.70787035 4.28328381 -5.30318076 4.46346554 -9 4 C-11.1875 1.5 -11.1875 1.5 -12 -1 C-7.47907032 -2.45606519 -4.48351204 -1.27032841 0 0 Z " fill="#3F3E84" transform="translate(641,149)"/>
<path d="M0 0 C0.33 0 0.66 0 1 0 C1 2.64 1 5.28 1 8 C-0.65 8.33 -2.3 8.66 -4 9 C-4 6.69 -4 4.38 -4 2 C-2.68 2 -1.36 2 0 2 C0 1.34 0 0.68 0 0 Z " fill="#0C0A5F" transform="translate(523,143)"/>
<path d="M0 0 C0 0.66 0 1.32 0 2 C2.64 2 5.28 2 8 2 C8 2.33 8 2.66 8 3 C5.36 3 2.72 3 0 3 C0 4.65 0 6.3 0 8 C-0.33 8 -0.66 8 -1 8 C-1 6.35 -1 4.7 -1 3 C-1.66 3 -2.32 3 -3 3 C-3 5.31 -3 7.62 -3 10 C-3.66 9.67 -4.32 9.34 -5 9 C-5.36666667 3.5 -5.36666667 3.5 -3.625 1.125 C-2 0 -2 0 0 0 Z " fill="#35357A" transform="translate(728,128)"/>
<path d="M0 0 C0 3 0 6 0 9 C-2.375 9.1875 -2.375 9.1875 -5 9 C-5.66 8.01 -6.32 7.02 -7 6 C-6.01 5.67 -5.02 5.34 -4 5 C-4 4.01 -4 3.02 -4 2 C-2.68 1.34 -1.36 0.68 0 0 Z " fill="#020263" transform="translate(650,80)"/>
<path d="M0 0 C0.66 0.33 1.32 0.66 2 1 C1.24172908 2.17487036 0.46792245 3.33972592 -0.3125 4.5 C-0.74175781 5.1496875 -1.17101562 5.799375 -1.61328125 6.46875 C-2.07089844 6.9740625 -2.52851562 7.479375 -3 8 C-3.99 8 -4.98 8 -6 8 C-6 8.66 -6 9.32 -6 10 C-6.99 10.33 -7.98 10.66 -9 11 C-7.59928507 5.70841026 -4.14512755 3.22521956 0 0 Z " fill="#302E74" transform="translate(614,35)"/>
<path d="M0 0 C0.9075 0.103125 1.815 0.20625 2.75 0.3125 C1.79578192 1.46176266 0.83647955 2.60680541 -0.125 3.75 C-0.65867187 4.38808594 -1.19234375 5.02617187 -1.7421875 5.68359375 C-3.25 7.3125 -3.25 7.3125 -5.25 8.3125 C-5.25 7.6525 -5.25 6.9925 -5.25 6.3125 C-5.91 5.9825 -6.57 5.6525 -7.25 5.3125 C-4.05 0.38942308 -4.05 0.38942308 0 0 Z " fill="#242168" transform="translate(575.25,127.6875)"/>
<path d="M0 0 C-1.81309003 3.77727089 -3.9073259 7.37269822 -6 11 C-6.82638376 8.10765685 -7 6.11257569 -7 3 C-4.73338012 -0.17326783 -4.14853831 0 0 0 Z " fill="#141467" transform="translate(617,41)"/>
<path d="M0 0 C1.32 0.33 2.64 0.66 4 1 C2.94124926 4.40312738 1.99097846 7.01353231 0 10 C-0.99 8.35 -1.98 6.7 -3 5 C-2.01 3.35 -1.02 1.7 0 0 Z " fill="#14136D" transform="translate(647,37)"/>
<path d="M0 0 C2.10388569 -0.05402274 4.20816714 -0.09280256 6.3125 -0.125 C8.07013672 -0.15980469 8.07013672 -0.15980469 9.86328125 -0.1953125 C13 0 13 0 16 2 C7.585 2.495 7.585 2.495 -1 3 C-0.67 2.01 -0.34 1.02 0 0 Z " fill="#2E2F76" transform="translate(506,37)"/>
<path d="M0 0 C2.00720923 0.28674418 4.0085944 0.61866701 6 1 C5.01 2.98 4.02 4.96 3 7 C1.68 6.67 0.36 6.34 -1 6 C-1.042721 4.33388095 -1.04063832 2.66617115 -1 1 C-0.67 0.67 -0.34 0.34 0 0 Z " fill="#0E0B65" transform="translate(403,73)"/>
<path d="M0 0 C2.31 0 4.62 0 7 0 C7.33 0.66 7.66 1.32 8 2 C7.67 2.66 7.34 3.32 7 4 C6.34 4 5.68 4 5 4 C4.67 4.66 4.34 5.32 4 6 C3.34 6 2.68 6 2 6 C0 3 0 3 0 0 Z " fill="#020360" transform="translate(388,68)"/>
<path d="M0 0 C3.23360633 1.61680316 4.63931677 4.77102114 6 8 C5.75 10.4375 5.75 10.4375 5 12 C4.34 12 3.68 12 3 12 C0.60926555 8.17482487 0.44033448 4.40334476 0 0 Z " fill="#1F1F6B" transform="translate(535,38)"/>
<path d="M0 0 C1 3 1 3 1 6 C-3.75 5.25 -3.75 5.25 -6 3 C-6.99 2.34 -7.98 1.68 -9 1 C-5.8035914 -0.06546953 -3.34252724 -0.07427838 0 0 Z " fill="#030263" transform="translate(517,90)"/>
<path d="M0 0 C0.66 0 1.32 0 2 0 C2 1.98 2 3.96 2 6 C2.66 6 3.32 6 4 6 C3.67 7.32 3.34 8.64 3 10 C0.525 9.01 0.525 9.01 -2 8 C-2 7.34 -2 6.68 -2 6 C-1.34 6 -0.68 6 0 6 C-0.2784375 4.7934375 -0.2784375 4.7934375 -0.5625 3.5625 C-0.706875 2.716875 -0.85125 1.87125 -1 1 C-0.67 0.67 -0.34 0.34 0 0 Z " fill="#020165" transform="translate(755,37)"/>
<path d="M0 0 C0.66 0 1.32 0 2 0 C2 1.65 2 3.3 2 5 C3.32 5 4.64 5 6 5 C6.33 5.99 6.66 6.98 7 8 C3.86650268 9.04449911 3.01031744 8.93423645 0 8 C0 5.36 0 2.72 0 0 Z " fill="#0C0C62" transform="translate(725,131)"/>
<path d="M0 0 C0 2.41750309 -0.15002908 4.62211669 -0.4375 7.01171875 C-0.52773438 7.76904297 -0.61796875 8.52636719 -0.7109375 9.30664062 C-0.80632813 10.09232422 -0.90171875 10.87800781 -1 11.6875 C-1.09539063 12.48478516 -1.19078125 13.28207031 -1.2890625 14.10351562 C-1.52447366 16.06919884 -1.76203026 18.0346249 -2 20 C-2.33 20 -2.66 20 -3 20 C-3.08089542 17.22858283 -3.14044062 14.45952181 -3.1875 11.6875 C-3.22520508 10.50897461 -3.22520508 10.50897461 -3.26367188 9.30664062 C-3.27333984 8.54931641 -3.28300781 7.79199219 -3.29296875 7.01171875 C-3.3086792 6.31522217 -3.32438965 5.61872559 -3.34057617 4.90112305 C-2.90238443 2.45510217 -1.86562642 1.57297914 0 0 Z " fill="#3B3A80" transform="translate(604,132)"/>
<path d="M0 0 C-1.32 0.33 -2.64 0.66 -4 1 C-4 1.66 -4 2.32 -4 3 C-2.68 3.33 -1.36 3.66 0 4 C-3.07617188 4.29296875 -3.07617188 4.29296875 -6.15234375 4.5859375 C-6.76207031 4.72257813 -7.37179687 4.85921875 -8 5 C-8.33 5.66 -8.66 6.32 -9 7 C-9.33 5.35 -9.66 3.7 -10 2 C-6.49223216 0.39644899 -3.85645121 -0.22036864 0 0 Z " fill="#2A296C" transform="translate(641,127)"/>
<path d="M0 0 C2.64 0 5.28 0 8 0 C8 0.99 8 1.98 8 3 C5.69 2.67 3.38 2.34 1 2 C1 5.63 1 9.26 1 13 C0.67 13 0.34 13 0 13 C0 8.71 0 4.42 0 0 Z " fill="#0D0D58" transform="translate(554,33)"/>
<path d="M0 0 C1.32 0.33 2.64 0.66 4 1 C4 2.65 4 4.3 4 6 C3.01 6 2.02 6 1 6 C1.33 6.99 1.66 7.98 2 9 C1.34 9 0.68 9 0 9 C0 6.03 0 3.06 0 0 Z " fill="#06055F" transform="translate(646,136)"/>
<path d="M0 0 C0.99 0.33 1.98 0.66 3 1 C2.67 1.66 2.34 2.32 2 3 C1.34 3 0.68 3 0 3 C0 3.66 0 4.32 0 5 C-0.66 5 -1.32 5 -2 5 C-2 5.66 -2 6.32 -2 7 C-2.99 7.33 -3.98 7.66 -5 8 C-4.45773019 4.20411134 -2.79872437 2.52788007 0 0 Z " fill="#171666" transform="translate(442,153)"/>
<path d="M0 0 C6.75 0.875 6.75 0.875 9 2 C9 2.66 9 3.32 9 4 C5.06329512 5.31223496 2.87511856 4.24296256 -1 3 C-0.67 2.01 -0.34 1.02 0 0 Z " fill="#1A1966" transform="translate(662,127)"/>
<path d="M0 0 C-1.65 1.98 -3.3 3.96 -5 6 C-6.32 5.01 -7.64 4.02 -9 3 C-6.38997624 -0.48003168 -4.1689578 -0.27793052 0 0 Z " fill="#323073" transform="translate(624,118)"/>
<path d="M0 0 C4.62 0 9.24 0 14 0 C13.34 1.65 12.68 3.3 12 5 C11.34 5 10.68 5 10 5 C10 4.01 10 3.02 10 2 C6.7 1.67 3.4 1.34 0 1 C0 0.67 0 0.34 0 0 Z " fill="#0D0C66" transform="translate(625,89)"/>
<path d="M0 0 C0.99 0 1.98 0 3 0 C2.34 2.31 1.68 4.62 1 7 C0.01 6.67 -0.98 6.34 -2 6 C-2.99 6 -3.98 6 -5 6 C-1.125 1.125 -1.125 1.125 0 0 Z " fill="#212270" transform="translate(647,142)"/>
<path d="M0 0 C1.0625 1.8125 1.0625 1.8125 2 4 C1.67 4.99 1.34 5.98 1 7 C-1.475 6.01 -1.475 6.01 -4 5 C-3.6875 3.0625 -3.6875 3.0625 -3 1 C-2.01 0.67 -1.02 0.34 0 0 Z " fill="#0B0A64" transform="translate(495,129)"/>
<path d="M0 0 C0.66 0.33 1.32 0.66 2 1 C1.5359375 2.1446875 1.5359375 2.1446875 1.0625 3.3125 C0.32106407 5.18789677 -0.36228217 7.08684652 -1 9 C-1.66 9 -2.32 9 -3 9 C-3.75 6.75 -3.75 6.75 -4 4 C-2.0625 1.6875 -2.0625 1.6875 0 0 Z " fill="#09085F" transform="translate(380,96)"/>
<path d="M0 0 C3 0 3 0 4.6875 1.5 C5.120625 1.995 5.55375 2.49 6 3 C5.67 3.66 5.34 4.32 5 5 C3.02 5 1.04 5 -1 5 C-0.67 3.35 -0.34 1.7 0 0 Z " fill="#050464" transform="translate(608,79)"/>
<path d="M0 0 C3.80666984 1.44390925 5.26602582 3.34952803 7 7 C6.67 7.66 6.34 8.32 6 9 C5.01 9.33 4.02 9.66 3 10 C3 8.02 3 6.04 3 4 C2.34 4 1.68 4 1 4 C0.67 2.68 0.34 1.36 0 0 Z " fill="#2F2D78" transform="translate(440,33)"/>
<path d="M0 0 C2.97 0.33 5.94 0.66 9 1 C6 4 6 4 3.95703125 4.29296875 C1.97135417 4.1953125 -0.01432292 4.09765625 -2 4 C-2.33 3.34 -2.66 2.68 -3 2 C-1.02 2 0.96 2 3 2 C2.01 1.34 1.02 0.68 0 0 Z " fill="#41417F" transform="translate(662,149)"/>
<path d="M0 0 C0.66 0 1.32 0 2 0 C2 0.66 2 1.32 2 2 C2.7425 1.938125 3.485 1.87625 4.25 1.8125 C7.45383006 2.03094296 8.64031256 2.90250005 11 5 C8.03 5 5.06 5 2 5 C2 4.34 2 3.68 2 3 C1.34 3 0.68 3 0 3 C0 2.01 0 1.02 0 0 Z " fill="#2D2E76" transform="translate(619,91)"/>
<path d="M0 0 C2.97 0 5.94 0 9 0 C8.67 0.99 8.34 1.98 8 3 C5.36 3 2.72 3 0 3 C0 2.01 0 1.02 0 0 Z " fill="#1E1F65" transform="translate(723,92)"/>
<path d="M0 0 C1.70884005 1.62339805 3.37446717 3.29319053 5 5 C5 5.66 5 6.32 5 7 C3.35 7 1.7 7 0 7 C-0.33 6.01 -0.66 5.02 -1 4 C-0.34 4 0.32 4 1 4 C0.67 2.68 0.34 1.36 0 0 Z " fill="#1E1B66" transform="translate(505,145)"/>
<path d="M0 0 C1.98 0 3.96 0 6 0 C6.33 1.32 6.66 2.64 7 4 C4.69 4 2.38 4 0 4 C0 2.68 0 1.36 0 0 Z " fill="#FBFAFE" transform="translate(690,132)"/>
<path d="M0 0 C2.125 0.9375 2.125 0.9375 4 2 C4 4 4 4 2.625 5.625 C1 7 1 7 -1 7 C-1.33 5.02 -1.66 3.04 -2 1 C-1.34 0.67 -0.68 0.34 0 0 Z " fill="#020260" transform="translate(499,84)"/>
<path d="M0 0 C1.32 0 2.64 0 4 0 C3.6875 1.875 3.6875 1.875 3 4 C2.01 4.66 1.02 5.32 0 6 C0 5.34 0 4.68 0 4 C-0.66 4 -1.32 4 -2 4 C-2 3.34 -2 2.68 -2 2 C-1.34 2 -0.68 2 0 2 C0 1.34 0 0.68 0 0 Z " fill="#1C1965" transform="translate(698,145)"/>
<path d="M0 0 C0.33 0 0.66 0 1 0 C1.04898438 0.69867188 1.09796875 1.39734375 1.1484375 2.1171875 C1.22320313 3.02726562 1.29796875 3.93734375 1.375 4.875 C1.44460938 5.77992187 1.51421875 6.68484375 1.5859375 7.6171875 C1.79568132 10.17941903 1.79568132 10.17941903 4 12 C2.68 12.99 1.36 13.98 0 15 C0 10.05 0 5.1 0 0 Z " fill="#EBEEFC" transform="translate(602,119)"/>
<path d="M0 0 C0.33 0.99 0.66 1.98 1 3 C0.01 2.67 -0.98 2.34 -2 2 C-1.34 1.34 -0.68 0.68 0 0 Z M-7 1 C-4.525 1.99 -4.525 1.99 -2 3 C-2 3.66 -2 4.32 -2 5 C-3.175625 4.9690625 -3.175625 4.9690625 -4.375 4.9375 C-6.98114961 4.81315937 -6.98114961 4.81315937 -9 6 C-8.34 4.35 -7.68 2.7 -7 1 Z " fill="#201F76" transform="translate(497,41)"/>
<path d="M0 0 C0.625 1.8125 0.625 1.8125 1 4 C-1 7 -1 7 -3.125 7.6875 C-3.74375 7.790625 -4.3625 7.89375 -5 8 C-3.8141763 4.62496331 -2.72426311 2.35277269 0 0 Z " fill="#201E6B" transform="translate(310,35)"/>
<path d="M0 0 C2.31 0.66 4.62 1.32 7 2 C7 3.32 7 4.64 7 6 C2.32307692 4.52307692 2.32307692 4.52307692 0.6875 1.875 C0.460625 1.25625 0.23375 0.6375 0 0 Z " fill="#151666" transform="translate(611,140)"/>
<path d="M0 0 C0.33 0.66 0.66 1.32 1 2 C1.66 2 2.32 2 3 2 C2.67 4.64 2.34 7.28 2 10 C1.731875 9.360625 1.46375 8.72125 1.1875 8.0625 C0.11332248 5.66868314 0.11332248 5.66868314 -3 5 C-2.34 5 -1.68 5 -1 5 C-0.67 3.35 -0.34 1.7 0 0 Z " fill="#403D83" transform="translate(523,139)"/>
<path d="M0 0 C2.3125 -0.1875 2.3125 -0.1875 5 0 C5.99 0.99 6.98 1.98 8 3 C5.03 3 2.06 3 -1 3 C-0.67 2.01 -0.34 1.02 0 0 Z " fill="#121361" transform="translate(689,127)"/>
<path d="M0 0 C4.75 0.75 4.75 0.75 7 3 C7.125 5.625 7.125 5.625 7 8 C6.690625 7.0409375 6.690625 7.0409375 6.375 6.0625 C5.10461791 3.65074923 5.10461791 3.65074923 1.875 3.25 C0.92625 3.1675 -0.0225 3.085 -1 3 C-0.67 2.01 -0.34 1.02 0 0 Z " fill="#4A4785" transform="translate(390,65)"/>
<path d="M0 0 C0.33 0.66 0.66 1.32 1 2 C1.66 2 2.32 2 3 2 C3 2.99 3 3.98 3 5 C0.625 5.1875 0.625 5.1875 -2 5 C-2.66 4.01 -3.32 3.02 -4 2 C-2.68 2 -1.36 2 0 2 C0 1.34 0 0.68 0 0 Z " fill="#29286A" transform="translate(621,147)"/>
<path d="M0 0 C0.66 1.65 1.32 3.3 2 5 C0.35 4.67 -1.3 4.34 -3 4 C-3.33 3.01 -3.66 2.02 -4 1 C-2 0 -2 0 0 0 Z " fill="#191560" transform="translate(577,147)"/>
<path d="M0 0 C0.33 0.99 0.66 1.98 1 3 C1.99 3 2.98 3 4 3 C3.67 4.98 3.34 6.96 3 9 C2.67 8.01 2.34 7.02 2 6 C1.34 6 0.68 6 0 6 C-0.33 6.66 -0.66 7.32 -1 8 C-0.67 5.36 -0.34 2.72 0 0 Z " fill="#3C3C7F" transform="translate(539,131)"/>
<path d="M0 0 C0.33 0.66 0.66 1.32 1 2 C2.65 2 4.3 2 6 2 C5.67 2.99 5.34 3.98 5 5 C1.28400809 5.20086443 0.22791555 5.1519437 -3 3 C-2.67 2.34 -2.34 1.68 -2 1 C-1.34 1.33 -0.68 1.66 0 2 C0 1.34 0 0.68 0 0 Z " fill="#1D1C6A" transform="translate(490,132)"/>
<path d="M0 0 C1.32 0 2.64 0 4 0 C4.33 1.32 4.66 2.64 5 4 C4.01 4 3.02 4 2 4 C1.67 4.99 1.34 5.98 1 7 C0.67 4.69 0.34 2.38 0 0 Z " fill="#25266B" transform="translate(512,128)"/>
<path d="M0 0 C0.99 0 1.98 0 3 0 C1.60667426 3.36720387 0.0210714 4.9859524 -3 7 C-2.67 5.35 -2.34 3.7 -2 2 C-1.34 2 -0.68 2 0 2 C0 1.34 0 0.68 0 0 Z " fill="#120F63" transform="translate(505,119)"/>
<path d="M0 0 C1.32 0.66 2.64 1.32 4 2 C-2.75 6 -2.75 6 -5 6 C-5 5.01 -5 4.02 -5 3 C-3.68 3 -2.36 3 -1 3 C-0.67 2.01 -0.34 1.02 0 0 Z " fill="#18166A" transform="translate(646,88)"/>
<path d="M0 0 C0.99 0.33 1.98 0.66 3 1 C2.67 1.99 2.34 2.98 2 4 C2.99 3.67 3.98 3.34 5 3 C4.67 3.99 4.34 4.98 4 6 C2.02 5.34 0.04 4.68 -2 4 C-1.34 2.68 -0.68 1.36 0 0 Z " fill="#030264" transform="translate(704,35)"/>
<path d="M0 0 C1.65 0.33 3.3 0.66 5 1 C4.01 1.33 3.02 1.66 2 2 C2 2.66 2 3.32 2 4 C0.02 4.99 0.02 4.99 -2 6 C-2.33 5.01 -2.66 4.02 -3 3 C-2.34 3 -1.68 3 -1 3 C-0.67 2.01 -0.34 1.02 0 0 Z " fill="#18166B" transform="translate(320,36)"/>
<path d="M0 0 C0.99 0 1.98 0 3 0 C3 0.66 3 1.32 3 2 C3.99 2.33 4.98 2.66 6 3 C5.67 3.66 5.34 4.32 5 5 C3.68 4.67 2.36 4.34 1 4 C0.67 2.68 0.34 1.36 0 0 Z " fill="#18165B" transform="translate(723,145)"/>
<path d="M0 0 C0.99 0.33 1.98 0.66 3 1 C3 2.65 3 4.3 3 6 C2.01 6.33 1.02 6.66 0 7 C0 4.69 0 2.38 0 0 Z " fill="#171462" transform="translate(524,134)"/>
<path d="M0 0 C1.4606285 2.64738916 2 3.89448334 2 7 C1.01 6.67 0.02 6.34 -1 6 C-1 7.65 -1 9.3 -1 11 C-1.33 11 -1.66 11 -2 11 C-2.19622241 6.78121808 -1.80230168 3.82989106 0 0 Z " fill="#3F3F7F" transform="translate(655,131)"/>
<path d="M0 0 C0.33 2.31 0.66 4.62 1 7 C0.34 6.01 -0.32 5.02 -1 4 C-1.99 5.485 -1.99 5.485 -3 7 C-3 5.35 -3 3.7 -3 2 C-3.66 1.67 -4.32 1.34 -5 1 C-3 0 -3 0 0 0 Z " fill="#2D2E74" transform="translate(533,134)"/>
<path d="M0 0 C0.99 0 1.98 0 3 0 C3 2.31 3 4.62 3 7 C2.34 7 1.68 7 1 7 C0.67 4.69 0.34 2.38 0 0 Z " fill="#090561" transform="translate(514,132)"/>
<path d="M0 0 C2.64 0 5.28 0 8 0 C7.67 0.99 7.34 1.98 7 3 C4.69 2.67 2.38 2.34 0 2 C0 1.34 0 0.68 0 0 Z " fill="#100E5E" transform="translate(637,128)"/>
<path d="M0 0 C0.99 0 1.98 0 3 0 C2.67 2.64 2.34 5.28 2 8 C1.01 7.34 0.02 6.68 -1 6 C-0.67 4.02 -0.34 2.04 0 0 Z " fill="#030169" transform="translate(405,112)"/>
<path d="M0 0 C0 3 0 3 -1 6 C-4.0625 7.1875 -4.0625 7.1875 -7 8 C-6.02133662 6.85373678 -5.04205413 5.70800212 -4.0625 4.5625 C-3.51722656 3.92441406 -2.97195313 3.28632812 -2.41015625 2.62890625 C-1.63204305 1.73008851 -0.84063472 0.84063472 0 0 Z " fill="#303079" transform="translate(416,99)"/>
<path d="M0 0 C1.32 0 2.64 0 4 0 C4.66 1.65 5.32 3.3 6 5 C3.49642139 4.1654738 1.33214148 3.20628008 -1 2 C-0.67 1.34 -0.34 0.68 0 0 Z " fill="#211E68" transform="translate(405,71)"/>
<path d="M0 0 C0.66 0 1.32 0 2 0 C2 0.66 2 1.32 2 2 C3.65 2 5.3 2 7 2 C7 2.66 7 3.32 7 4 C4 4 1 4 -2 4 C-1.34 2.68 -0.68 1.36 0 0 Z " fill="#08075A" transform="translate(605,132)"/>
<path d="M0 0 C0.33 0.66 0.66 1.32 1 2 C1.66 2.33 2.32 2.66 3 3 C2.67 4.65 2.34 6.3 2 8 C1.01 7.67 0.02 7.34 -1 7 C-2 4 -2 4 -1.0625 1.8125 C-0.5365625 0.9153125 -0.5365625 0.9153125 0 0 Z " fill="#E8E7F6" transform="translate(721,128)"/>
<path d="M0 0 C-0.33 1.32 -0.66 2.64 -1 4 C-1.66 4 -2.32 4 -3 4 C-3.33 3.34 -3.66 2.68 -4 2 C-4.99 1.34 -5.98 0.68 -7 0 C-3.86650268 -1.04449911 -3.01031744 -0.93423645 0 0 Z " fill="#2B276C" transform="translate(721,128)"/>
<path d="M0 0 C0.75 1.75 0.75 1.75 1 4 C-0.9375 6.25 -0.9375 6.25 -3 8 C-3.99 7.67 -4.98 7.34 -6 7 C-4.71034824 5.62437146 -3.37310707 4.29233607 -2 3 C-1.34 3 -0.68 3 0 3 C0 2.01 0 1.02 0 0 Z " fill="#D9DBEC" transform="translate(509,118)"/>
<path d="M0 0 C0 3.10551666 -0.5393715 4.35261084 -2 7 C-3.32 6.67 -4.64 6.34 -6 6 C-4.02 4.02 -2.04 2.04 0 0 Z " fill="#2B2A75" transform="translate(333,82)"/>
<path d="M0 0 C0.66 0.99 1.32 1.98 2 3 C1.67 3.99 1.34 4.98 1 6 C-1.0625 6.6875 -1.0625 6.6875 -3 7 C-3 5.35 -3 3.7 -3 2 C-2.34 2 -1.68 2 -1 2 C-0.67 1.34 -0.34 0.68 0 0 Z " fill="#000161" transform="translate(656,61)"/>
<path d="M0 0 C0.99 0.33 1.98 0.66 3 1 C1.68 2.32 0.36 3.64 -1 5 C-1.99 4.67 -2.98 4.34 -4 4 C-2.68 2.68 -1.36 1.36 0 0 Z " fill="#03025F" transform="translate(495,39)"/>
<path d="M0 0 C0.99 0 1.98 0 3 0 C5.1875 2.5 5.1875 2.5 7 5 C3.47967572 5 2.5614657 4.29648649 0 2 C0 1.34 0 0.68 0 0 Z " fill="#27256E" transform="translate(312,157)"/>
<path d="M0 0 C0.33 0.99 0.66 1.98 1 3 C1.66 3.33 2.32 3.66 3 4 C2.34 4 1.68 4 1 4 C1 4.66 1 5.32 1 6 C-0.98 6.66 -2.96 7.32 -5 8 C-4.360625 7.236875 -3.72125 6.47375 -3.0625 5.6875 C-0.85767219 3.11753287 -0.85767219 3.11753287 0 0 Z " fill="#D0CFEA" transform="translate(649,144)"/>
<path d="M0 0 C0.66 0 1.32 0 2 0 C2 2.31 2 4.62 2 7 C1.67 6.34 1.34 5.68 1 5 C0.01 5.33 -0.98 5.66 -2 6 C-1.34 4.02 -0.68 2.04 0 0 Z " fill="#1C1E67" transform="translate(539,137)"/>
<path d="M0 0 C0.99 0 1.98 0 3 0 C2.67 1.65 2.34 3.3 2 5 C1.01 4.67 0.02 4.34 -1 4 C-0.67 2.68 -0.34 1.36 0 0 Z " fill="#030466" transform="translate(527,129)"/>
<path d="M0 0 C1.09658936 3.28976808 0.79953138 4.71303767 0 8 C-0.66 7.01 -1.32 6.02 -2 5 C-2.66 4.67 -3.32 4.34 -4 4 C-2.68 2.68 -1.36 1.36 0 0 Z " fill="#282871" transform="translate(497,125)"/>
<path d="M0 0 C0.33 1.32 0.66 2.64 1 4 C-0.65 4.33 -2.3 4.66 -4 5 C-3.6875 3.0625 -3.6875 3.0625 -3 1 C-2.01 0.67 -1.02 0.34 0 0 Z " fill="#171467" transform="translate(617,121)"/>
<path d="M0 0 C0.99 0.33 1.98 0.66 3 1 C3 2.65 3 4.3 3 6 C1.68 5.67 0.36 5.34 -1 5 C-0.67 3.35 -0.34 1.7 0 0 Z " fill="#040364" transform="translate(504,87)"/>
<path d="M0 0 C0.33 0 0.66 0 1 0 C1 2.31 1 4.62 1 7 C-0.98 7.99 -0.98 7.99 -3 9 C-2.01 6.03 -1.02 3.06 0 0 Z " fill="#272571" transform="translate(729,77)"/>
<path d="M0 0 C2 3 2 3 2 7 C0.68 7.33 -0.64 7.66 -2 8 C-1.34 5.36 -0.68 2.72 0 0 Z " fill="#272476" transform="translate(733,66)"/>
<path d="M0 0 C0.66 0.99 1.32 1.98 2 3 C-1.00617269 6.00617269 -3.82381598 5.59585316 -8 6 C-5 4 -5 4 -2.875 3 C-0.82955462 2.14139842 -0.82955462 2.14139842 0 0 Z " fill="#272671" transform="translate(706,53)"/>
</svg>
