<svg width="64" height="64" viewBox="0 0 64 64" fill="none" xmlns="http://www.w3.org/2000/svg">
<rect x="0.5" y="0.5" width="63" height="63" rx="12.5" fill="white"/>
<rect x="0.5" y="0.5" width="63" height="63" rx="12.5" stroke="#DCE0E5"/>
<rect width="48" height="48" transform="translate(8 8)" fill="white"/>
<path d="M14 15.7888C14 13.6963 15.6963 12 17.7888 12H46.2112C48.3037 12 50 13.6963 50 15.7888V48.2112C50 50.3037 48.3037 52 46.2112 52H17.7888C15.6963 52 14 50.3037 14 48.2112V15.7888Z" fill="#0070F2"/>
<rect x="38" y="28" width="8" height="8" rx="1.26293" fill="white"/>
<rect x="37.3707" y="38" width="8.84052" height="8.84052" rx="1.26293" fill="#FDB421"/>
<rect x="28" y="28" width="8" height="8" rx="1.26293" fill="white"/>
<rect x="27.2672" y="38" width="8.84052" height="8.84052" rx="1.26293" fill="white"/>
<rect x="18" y="28" width="8" height="8" rx="1.26293" fill="white"/>
<rect x="17.1638" y="38.1078" width="8.84052" height="8.84052" rx="1.26293" fill="white"/>
<rect x="18" y="17" width="28" height="8" rx="1.26293" fill="white"/>
<path d="M22.5 55C29.9558 55 36 48.9558 36 41.5C36 34.0442 29.9558 28 22.5 28C15.0442 28 9 34.0442 9 41.5C9 48.9558 15.0442 55 22.5 55Z" fill="#FC5B1C"/>
<path d="M22.5215 50.8477C22.0273 50.8477 21.5977 50.5791 21.5977 49.9346V49.0859C20.1045 48.9463 18.7617 48.4629 17.9023 47.6787C17.2471 47.1094 16.8818 46.4541 16.8818 45.8203C16.8818 45.1006 17.376 44.6816 18.0312 44.6816C18.4395 44.6816 18.7402 44.7998 19.2881 45.3477C20.2549 46.3896 21.3184 46.873 22.5967 46.873C24.3047 46.873 25.2607 46.0996 25.2607 44.875C25.2607 43.9297 24.6055 43.3711 23.0156 42.9951L20.835 42.4902C18.3857 41.9424 17.1074 40.5566 17.1074 38.4727C17.1074 36.0879 18.8799 34.4229 21.6621 34.165V33.3057C21.6621 32.6611 22.0918 32.4033 22.5752 32.4033C23.0693 32.4033 23.499 32.6719 23.499 33.3057V34.1973C24.8418 34.3691 26.0342 34.8633 26.8291 35.6152C27.4307 36.2061 27.7852 36.8613 27.7852 37.4629C27.7852 38.0859 27.3232 38.5049 26.7217 38.5049C26.2275 38.5049 25.8623 38.3223 25.3896 37.8281C24.4551 36.7861 23.6172 36.3779 22.4141 36.3779C20.9316 36.3779 19.9863 37.1729 19.9863 38.2686C19.9863 39.1816 20.6523 39.8047 22.0166 40.1055L24.1973 40.5996C26.8506 41.1797 28.1289 42.4688 28.1289 44.5957C28.1289 47.0664 26.3242 48.7637 23.4346 49.0752V49.9346C23.4346 50.5791 23.0049 50.8477 22.5215 50.8477Z" fill="white"/>
</svg>
